<svg width="171" height="169" viewBox="0 0 171 169" fill="none" xmlns="http://www.w3.org/2000/svg">
<rect width="171" height="169" fill="#EE7A10"/>
<path d="M60 80.5H76" stroke="white" stroke-width="4" stroke-linecap="round" stroke-linejoin="round"/>
<path d="M68 72.5V88.5" stroke="white" stroke-width="4" stroke-linecap="round" stroke-linejoin="round"/>
<path d="M96 84.5H96.04" stroke="white" stroke-width="4" stroke-linecap="round" stroke-linejoin="round"/>
<path d="M108 76.5H108.04" stroke="white" stroke-width="4" stroke-linecap="round" stroke-linejoin="round"/>
<path d="M105.28 56.5H62.72C58.7611 56.5009 54.9431 57.9695 52.0041 60.6219C49.0651 63.2742 47.2138 66.922 46.808 70.86C46.784 71.068 46.768 71.264 46.74 71.468C46.416 74.164 44 94.324 44 100.5C44 103.683 45.2643 106.735 47.5147 108.985C49.7652 111.236 52.8174 112.5 56 112.5C60 112.5 62 110.5 64 108.5L69.656 102.844C71.1559 101.344 73.1904 100.5 75.312 100.5H92.688C94.8096 100.5 96.8441 101.344 98.344 102.844L104 108.5C106 110.5 108 112.5 112 112.5C115.183 112.5 118.235 111.236 120.485 108.985C122.736 106.735 124 103.683 124 100.5C124 94.32 121.584 74.164 121.26 71.468C121.232 71.268 121.216 71.068 121.192 70.864C120.787 66.9252 118.936 63.2765 115.997 60.6233C113.058 57.9702 109.24 56.501 105.28 56.5Z" stroke="white" stroke-width="4" stroke-linecap="round" stroke-linejoin="round"/>
</svg>
