<svg width="101" height="101" viewBox="0 0 101 101" fill="none" xmlns="http://www.w3.org/2000/svg">
<path d="M15.3685 65.6209C15.3685 65.6209 15.3567 65.6159 15.35 65.6143C15.382 65.6276 15.3836 65.6276 15.3685 65.6209Z" fill="white"/>
<path d="M80.3517 28.7542L80.0633 28.5575C76.4767 27.7642 72.6083 27.7792 69.635 30.1108C68.6383 30.8925 67.2233 29.4942 68.23 28.7058C70.1117 27.2308 72.26 26.4142 74.635 26.1742C75.725 26.0642 76.8183 26.0842 77.9083 26.1892C73.1383 15.8092 62.6733 8.59082 50.5 8.59082C38.3267 8.59082 27.0117 16.4058 22.5367 27.4675L20.65 28.7558C13.4783 32.1258 8.5 39.3892 8.5 47.8392C8.5 58.3725 16.2183 67.1025 26.3067 68.6875C28.9517 68.3641 31.4517 67.3492 33.4083 65.3358C34.3017 64.4158 35.7067 65.8242 34.8133 66.7408C33.935 67.6458 32.9533 68.3625 31.91 68.9458H49.1933V58.6458L38.1567 60.4408L39.395 55.4542L28.2233 46.7558L32.1633 44.8792L29.6667 37.1192L36.8917 38.8158L37.275 34.2675L43.0783 39.5492L41.3967 29.0508L46.3617 30.7942L50.4983 24.3958L54.635 30.7942L59.6 29.0508L57.9183 39.5492L63.7217 34.2675L64.105 38.8158L71.33 37.1192L68.8333 44.8792L72.7733 46.7558L61.6017 55.4542L62.84 60.4408L51.8033 58.6458V68.9458H71.3917C83.0483 68.9458 92.4983 59.4958 92.4983 47.8392C92.4983 39.3908 87.5217 32.1258 80.35 28.7558L80.3517 28.7542Z" fill="#ED2224"/>
<path d="M19.9683 92.3393C19.4016 92.3393 18.8866 92.2009 18.4233 91.9243C17.96 91.6476 17.59 91.2776 17.3133 90.8143C17.0366 90.3509 16.8983 89.8376 16.8983 89.2709V80.4809C16.8983 79.9143 17.0366 79.3993 17.3133 78.9376C17.59 78.4743 17.96 78.1059 18.4233 77.8276C18.8866 77.5509 19.4 77.4126 19.9683 77.4126H31.785V80.6476H20.7966C20.575 80.6476 20.4066 80.7026 20.2883 80.8126C20.1716 80.9226 20.1116 81.0959 20.1116 81.3309V88.4209C20.1116 88.6426 20.17 88.8126 20.2883 88.9293C20.405 89.0459 20.575 89.1059 20.7966 89.1059H31.785V92.3409H19.9683V92.3393Z" fill="#231F20"/>
<path d="M34.31 92.3276V77.4209H46.1483C46.715 77.4209 47.23 77.5592 47.6917 77.8359C48.155 78.1126 48.5283 78.4859 48.8117 78.9559C49.095 79.4259 49.2367 79.9376 49.2367 80.4892V84.3459C49.2367 84.8992 49.095 85.4109 48.8117 85.8792C48.5283 86.3492 48.155 86.7226 47.6917 86.9992C47.2283 87.2759 46.7133 87.4142 46.1483 87.4142L37.5233 87.4342V92.3259H34.31V92.3276ZM45.9817 84.1809V80.6359H37.5233V84.1809H45.9817Z" fill="#231F20"/>
<path d="M54.8317 92.3393C54.265 92.3393 53.75 92.2009 53.2867 91.9243C52.8233 91.6476 52.4533 91.2776 52.1767 90.8143C51.9 90.3509 51.7617 89.8376 51.7617 89.2709V80.4809C51.7617 79.9143 51.9 79.3993 52.1767 78.9376C52.4533 78.4743 52.8233 78.1059 53.2867 77.8276C53.75 77.5509 54.2633 77.4126 54.8317 77.4126H66.6483V80.6476H55.66C55.4383 80.6476 55.27 80.7026 55.1517 80.8126C55.035 80.9226 54.975 81.0959 54.975 81.3309V88.4209C54.975 88.6426 55.0333 88.8126 55.1517 88.9293C55.2683 89.0459 55.4383 89.1059 55.66 89.1059H66.6483V92.3409H54.8317V92.3393Z" fill="#231F20"/>
<path d="M69.1733 80.4809C69.1733 79.9143 69.3117 79.3993 69.5883 78.9376C69.865 78.4743 70.2383 78.1059 70.7083 77.8276C71.1783 77.5509 71.6883 77.4126 72.2417 77.4126H81.0117C81.5783 77.4126 82.0933 77.5509 82.5567 77.8276C83.02 78.1043 83.3917 78.4743 83.6767 78.9376C83.96 79.4009 84.1017 79.9159 84.1017 80.4809V92.3393H80.8467V87.5293H72.3883V92.3393H69.175V80.4809H69.1733ZM80.845 84.2943V80.6459H72.3867V84.2943H80.845Z" fill="#231F20"/>
</svg>
