<svg width="171" height="169" viewBox="0 0 171 169" fill="none" xmlns="http://www.w3.org/2000/svg">
<rect width="169" height="169" fill="#7AA116"/>
<path d="M97 85L59.508 122.492C58.7201 123.28 57.7846 123.905 56.755 124.332C55.7254 124.759 54.6219 124.979 53.5074 124.979C51.2566 124.979 49.0978 124.085 47.506 122.494C45.9142 120.903 45.0197 118.744 45.0193 116.493C45.0189 114.243 45.9127 112.084 47.504 110.492L85 73" stroke="white" stroke-width="4" stroke-linecap="round" stroke-linejoin="round"/>
<path d="M109 97L125 81" stroke="white" stroke-width="4" stroke-linecap="round" stroke-linejoin="round"/>
<path d="M123 83L115.344 75.344C113.844 73.8441 113 71.8096 113 69.688V68.312C113 66.1904 112.156 64.1559 110.656 62.656L104.028 56.028C99.5285 51.5293 93.4267 49.0014 87.064 49H73L77.972 53.972C82.4717 58.4725 84.9997 64.5759 85 70.94V77L93 85H97.688C99.8096 85.0005 101.844 85.8436 103.344 87.344L111 95" stroke="white" stroke-width="4" stroke-linecap="round" stroke-linejoin="round"/>
</svg>
