<svg width="96" height="63" viewBox="0 0 96 63" fill="none" xmlns="http://www.w3.org/2000/svg">
<path d="M20.1475 35.646C29.9124 34.6899 38.2848 37.7096 47.3605 40.9112C49.6648 41.7008 51.6436 42.0533 54.0799 42.2046C54.6864 42.2439 55.2928 42.2833 55.9176 42.3237C56.5563 42.3636 57.1949 42.4033 57.8335 42.4428C59.0836 42.5204 60.3335 42.6001 61.5834 42.6811C62.4147 42.7326 62.4147 42.7326 63.2628 42.7853C64.7713 42.9193 64.7713 42.9193 65.8883 43.2541C67.9131 43.4807 69.6215 42.7388 71.5248 42.0874C72.1565 41.8802 72.1565 41.8802 72.8009 41.6688C74.5982 41.0791 76.3909 40.4762 78.1842 39.8746C79.4963 39.4365 80.8105 39.0051 82.1249 38.5739C82.525 38.4369 82.9251 38.3 83.3374 38.1588C86.8587 37.0049 90.0099 36.6843 93.4992 38.1719C94.8257 38.9251 95.2379 39.576 95.738 41.0136C96.0704 42.5517 96.1039 43.7667 95.738 45.3013C93.4241 48.2085 90.0897 49.6796 86.7457 51.0777C85.9867 51.403 85.9867 51.403 85.2124 51.7349C80.7278 53.6313 76.1934 55.4035 71.6494 57.1519C71.3153 57.2809 70.9812 57.4099 70.637 57.5428C68.3739 58.4131 66.1018 59.2542 63.8184 60.07C63.4917 60.188 63.165 60.306 62.8283 60.4275C56.3744 62.7258 51.152 62.7509 44.4345 61.4694C43.8701 61.3661 43.3057 61.2628 42.7242 61.1564C39.4622 60.548 36.2174 59.8799 32.9764 59.1692C32.6281 59.0933 32.2798 59.0174 31.9209 58.9392C30.2231 58.5684 28.5273 58.1909 26.8339 57.8004C21.3753 56.5687 16.6013 56.2855 11.175 57.7177C7.055 58.7821 7.055 58.7821 5.2199 58.1643C2.3518 55.9487 1.11364 52.5625 0.455792 49.1126C-0.261872 40.8828 -0.261872 40.8828 1.40861 38.6316C2.72456 38.2041 2.72456 38.2041 4.3899 37.9412C4.99297 37.842 5.59604 37.7428 6.21739 37.6406C6.85754 37.544 7.49772 37.4476 8.13792 37.3512C8.76705 37.25 9.39606 37.1479 10.025 37.0451C13.3938 36.5047 16.7584 36.0336 20.1475 35.646ZM4.74349 43.3957C4.15182 46.5139 4.77851 49.2938 6.0927 52.1236C6.63837 53.0786 6.63837 53.0786 8.07837 53.4002C8.98588 53.2804 9.88898 53.1262 10.788 52.9536C19.2562 51.6125 26.7362 53.2468 35.0254 55.0379C36.7745 55.4084 38.5241 55.7768 40.2739 56.1446C41.355 56.3726 42.4356 56.6026 43.5158 56.8349C50.096 58.2428 55.0185 58.7288 61.4364 56.2587C61.4364 56.1015 61.4364 55.9443 61.4364 55.7823C61.1688 55.7634 60.9012 55.7445 60.6255 55.7251C52.7716 55.1484 45.2424 53.9167 37.6158 51.971C37.6158 51.6566 37.6158 51.3422 37.6158 51.0182C42.3774 50.9268 46.9411 50.958 51.6551 51.7235C56.5039 52.4369 62.4859 53.3074 67.1533 51.4946C67.8012 50.5503 67.8012 50.5503 68.1061 49.589C67.0227 47.9831 67.0227 47.9831 65.2477 47.2069C64.3012 47.1306 63.3528 47.0768 62.4041 47.0357C54.2863 46.6251 47.1296 45.4874 39.4266 42.869C29.8158 39.6524 13.9454 37.2611 4.74349 43.3957ZM84.105 42.4987C83.7722 42.6022 83.4395 42.7056 83.0966 42.8123C82.3966 43.0309 81.6972 43.2512 80.9982 43.4731C79.9271 43.8125 78.8539 44.1451 77.7804 44.4769C77.0995 44.6905 76.4187 44.9045 75.738 45.1189C75.4169 45.2182 75.0959 45.3175 74.7651 45.4198C73.3766 45.8647 72.4874 46.1605 71.441 47.2069C71.3252 48.4787 71.3252 48.4787 71.3815 49.8867C71.3901 50.3645 71.3987 50.8423 71.4075 51.3346C71.4186 51.7018 71.4296 52.069 71.441 52.4474C78.2189 49.8 84.9201 47.0877 91.4503 43.8721C91.4503 43.4004 91.4503 42.9288 91.4503 42.4428C88.9331 40.7647 86.8294 41.632 84.105 42.4987Z" fill="#DD344C"/>
<path d="M53.1737 1.54229C54.7417 2.30578 55.9571 3.24667 57.1488 4.49937C58.3903 3.90346 59.5878 3.24925 60.7814 2.56396C63.9382 0.751765 66.9217 0.840282 70.4883 1.16451C73.5168 2.22268 75.5364 4.57503 77.2046 7.24058C78.4443 10.3265 78.0685 14.1044 77.0724 17.2079C73.7173 24.4238 67.9011 29.1968 61.4365 33.5603C61.1432 33.7648 60.85 33.9693 60.5479 34.18C59.6872 34.7364 59.6872 34.7364 58.1016 35.4659C56.851 35.1961 56.851 35.1961 55.7195 34.5131C55.3363 34.3025 54.9531 34.0918 54.5583 33.8748C47.689 29.592 39.8183 23.6232 37.6159 15.4568C37.1542 11.7976 36.9536 8.2896 39.2852 5.2512C43.1352 1.19019 47.6929 -0.0938837 53.1737 1.54229ZM42.38 8.31064C41.3344 10.402 41.5746 13.2989 42.1791 15.5126C44.7957 21.2454 49.7736 25.2262 54.7667 28.7962C55.177 29.1008 55.5872 29.4054 56.0099 29.7192C57.1314 30.355 57.1314 30.355 58.3305 29.9481C60.6274 28.6555 62.6851 27.0657 64.7714 25.4613C65.1189 25.1948 65.4665 24.9283 65.8247 24.6537C69.3018 21.8088 72.8398 17.8088 73.5403 13.2422C73.624 10.8077 73.5947 9.20787 71.9771 7.29827C70.464 5.77054 69.4503 5.36581 67.3023 5.30331C64.8783 5.3347 63.3134 5.82761 61.4365 7.35782C60.9332 7.87718 60.4369 8.4033 59.9477 8.93592C59.4957 9.35844 59.0437 9.78095 58.578 10.2163C56.4806 10.1443 55.4655 9.25151 53.9926 7.83423C51.7199 5.66247 50.0446 5.23573 46.945 5.24934C44.911 5.58476 43.683 6.77258 42.38 8.31064Z" fill="#DD344C"/>
</svg>
