<?xml version="1.0" standalone="no"?>
<!DOCTYPE svg PUBLIC "-//W3C//DTD SVG 20010904//EN"
 "http://www.w3.org/TR/2001/REC-SVG-20010904/DTD/svg10.dtd">
<svg version="1.0" xmlns="http://www.w3.org/2000/svg"
 width="2000.000000pt" height="2000.000000pt" viewBox="0 0 2000.000000 2000.000000"
 preserveAspectRatio="xMidYMid meet">

<g transform="translate(0.000000,2000.000000) scale(0.100000,-0.100000)"
fill="#000000" stroke="none">
<path d="M11129 11265 c-219 -55 -377 -212 -433 -429 -9 -32 -18 -61 -21 -64
-3 -3 -22 -8 -42 -11 l-38 -6 -5 -62 c-3 -34 -11 -68 -17 -75 -10 -9 -13 -353
-13 -1650 l0 -1639 -137 3 -138 3 -3 1261 c-2 1158 -3 1263 -19 1275 -10 9
-54 16 -127 19 l-111 5 0 30 0 30 108 5 c129 6 137 12 137 102 0 54 2 59 30
73 40 20 50 43 50 109 0 32 4 56 10 56 6 0 22 11 35 25 23 22 25 31 25 124 0
131 0 131 -139 131 -70 0 -111 4 -119 12 -7 7 -12 39 -12 74 0 85 -6 89 -132
80 -69 -4 -105 -3 -114 5 -11 9 -14 59 -14 244 0 197 -2 234 -15 245 -34 29
-40 -2 -45 -253 l-5 -242 -116 0 c-143 0 -147 -3 -151 -93 l-3 -67 -112 -5
c-151 -7 -153 -8 -153 -139 0 -97 1 -100 28 -120 15 -12 33 -26 40 -31 8 -7
12 -7 12 -1 0 6 -13 17 -29 25 -16 9 -32 23 -35 33 -6 15 -4 14 16 -3 13 -12
31 -24 41 -27 19 -7 23 -32 7 -42 -13 -8 -13 -76 -1 -108 6 -14 23 -29 40 -35
30 -11 31 -13 31 -75 0 -94 9 -100 149 -95 86 2 112 0 116 -10 9 -23 5 -26 -8
-8 -12 16 -13 14 -9 -18 l4 -36 -106 0 c-100 0 -108 -2 -131 -25 l-25 -24 0
-856 c0 -470 -2 -855 -5 -855 -3 0 -27 11 -53 24 -58 29 -193 76 -219 76 -11
0 -24 5 -31 12 -9 9 -12 314 -12 1312 0 1180 -1 1301 -16 1317 -15 17 -44 18
-488 12 -286 -3 -476 -10 -483 -16 -10 -7 -13 -67 -13 -238 0 -194 -2 -230
-16 -243 -12 -13 -39 -16 -128 -16 -79 0 -117 -4 -124 -12 -6 -7 -12 -68 -14
-136 -2 -90 -7 -125 -17 -131 -10 -7 -13 -32 -9 -110 2 -55 1 -101 -2 -101 -3
-1 -65 -2 -137 -3 -190 -3 -178 16 -178 -285 l0 -237 -136 -3 c-118 -2 -139
-5 -153 -21 -16 -17 -17 -65 -17 -562 1 -299 -2 -549 -6 -555 -6 -9 -167 -84
-180 -84 -2 0 -3 101 -3 224 0 224 -5 268 -33 279 -9 3 -106 3 -217 0 -154 -5
-205 -9 -216 -20 -10 -10 -14 -38 -14 -89 0 -43 -4 -74 -10 -74 -6 0 -10 -35
-10 -85 0 -47 -3 -85 -6 -85 -3 0 -43 22 -88 49 -103 62 -141 81 -161 81 -8 0
-68 22 -133 49 -379 160 -788 242 -1267 257 -545 17 -1063 -74 -1513 -264 -64
-28 -131 -53 -148 -57 -17 -3 -72 -31 -124 -61 -72 -43 -95 -53 -101 -42 -5 7
-6 52 -2 99 7 109 -4 214 -25 236 -15 14 -38 15 -212 9 -245 -9 -240 -6 -240
-116 0 -76 -1 -81 -25 -90 -24 -9 -174 -8 -480 5 -154 7 -161 6 -187 -15 l-28
-21 -2 -302 -3 -302 -32 3 c-58 6 -153 -28 -210 -75 -39 -32 -62 -43 -86 -43
-36 0 -129 -45 -188 -92 -52 -39 -100 -119 -116 -191 -8 -34 -19 -67 -25 -74
-6 -8 -33 -13 -63 -13 -61 0 -86 -18 -60 -44 15 -15 187 -16 1941 -16 1689 0
1924 -2 1924 -15 0 -8 -30 -61 -67 -117 -102 -157 -201 -326 -214 -365 -10
-31 -9 -39 8 -62 11 -14 47 -37 79 -51 75 -32 86 -39 78 -52 -4 -6 -48 -7
-123 -3 -124 8 -156 4 -165 -21 -7 -18 193 -247 238 -272 28 -16 88 -17 736
-17 l705 0 0 25 c0 25 0 25 -107 28 -137 3 -139 6 -97 107 46 111 55 107 -240
114 -286 7 -317 18 -156 57 178 42 255 81 255 128 0 42 -95 164 -292 376 -60
63 -108 121 -108 128 0 9 1287 12 6403 12 6802 0 6452 -2 6434 44 -5 12 -20
16 -61 16 -93 0 -86 -26 -86 304 0 214 -3 295 -12 304 -7 7 -41 12 -83 12 -89
0 -98 8 -78 67 37 109 -7 214 -112 268 -50 26 -70 30 -136 30 -66 1 -82 4
-101 23 -80 75 -216 68 -295 -14 -44 -45 -48 -59 -57 -172 -4 -60 -2 -65 26
-95 l30 -32 -26 36 c-14 20 -26 42 -26 50 0 9 5 6 12 -6 6 -11 19 -30 30 -41
19 -21 19 -22 0 -55 l-19 -34 -108 0 -107 0 -127 315 c-69 173 -134 326 -145
340 -10 14 -48 99 -85 190 -55 136 -70 166 -88 168 -24 4 -27 -5 -38 -83 -8
-60 -14 -72 -74 -150 -59 -78 -299 -316 -376 -373 -72 -53 -133 -85 -149 -79
-6 3 -38 72 -71 153 -32 82 -65 157 -74 167 -8 10 -45 93 -81 184 -36 92 -74
171 -84 177 -24 15 -46 -16 -46 -65 0 -21 -5 -50 -10 -64 -16 -43 -156 -218
-189 -238 -17 -10 -31 -22 -31 -28 0 -5 -6 -9 -13 -9 -22 0 -75 79 -107 159
-17 42 -35 86 -41 99 -17 41 -48 24 -93 -50 -23 -36 -52 -77 -66 -90 -14 -13
-63 -87 -109 -166 -68 -117 -86 -141 -97 -131 -8 6 -14 17 -14 23 0 25 -222
562 -237 574 -43 32 -79 -6 -89 -95 -6 -59 -12 -72 -71 -151 -36 -48 -72 -87
-81 -87 -12 0 -25 24 -45 80 -41 113 -50 130 -76 133 -29 5 -57 -21 -88 -81
-13 -27 -64 -115 -112 -195 -48 -81 -90 -151 -92 -157 -12 -30 -102 -175 -114
-185 -10 -8 -41 -11 -92 -8 -89 4 -158 33 -232 97 l-44 38 18 92 c24 122 17
319 -14 441 -25 93 -91 242 -142 317 -49 72 -148 182 -179 198 -15 8 -50 36
-78 63 -51 49 -157 111 -262 152 -212 84 -531 93 -723 20 -28 -11 -55 -16 -59
-12 -4 4 -9 228 -12 497 -2 270 -8 519 -12 555 l-9 65 -39 6 c-44 7 -52 16
-66 83 -20 93 -68 176 -149 257 -82 81 -134 115 -233 149 -81 28 -239 36 -319
15z m270 -60 c143 -38 274 -146 336 -277 20 -41 38 -91 42 -111 5 -33 3 -38
-21 -47 -17 -6 -202 -10 -500 -10 -541 0 -519 -3 -498 75 21 78 64 156 120
216 105 114 228 169 377 169 50 0 114 -7 144 -15z m-2374 -401 c15 -15 16
-121 13 -1280 -3 -888 -7 -1267 -15 -1275 -12 -12 -1273 -16 -1292 -4 -14 8
-15 241 -1 250 5 3 263 5 573 5 309 0 578 3 596 6 25 5 31 11 29 28 l-3 21
-589 3 c-428 1 -593 5 -603 14 -9 7 -13 26 -11 52 l3 41 600 5 600 5 3 23 c2
12 2 23 0 24 -2 2 -273 5 -603 8 l-600 5 -5 292 c-3 160 -9 295 -13 300 -5 4
-34 10 -65 13 l-57 5 0 225 0 225 139 3 c82 1 145 7 153 14 10 8 13 63 13 242
0 128 5 238 10 246 7 12 35 15 131 16 91 1 124 5 130 15 5 8 9 115 9 240 0
161 3 228 12 237 9 9 116 12 419 12 364 0 409 -2 424 -16z m2843 -106 c9 -9
12 -146 12 -557 0 -301 -4 -551 -8 -558 -4 -6 -50 -39 -102 -73 -114 -75 -240
-198 -304 -297 -25 -39 -58 -80 -73 -91 -22 -16 -28 -30 -34 -78 -3 -33 -17
-95 -29 -139 -16 -56 -24 -118 -27 -208 -6 -144 6 -239 43 -359 21 -66 24 -89
18 -152 -8 -90 -1 -126 26 -126 11 0 24 9 30 20 17 32 35 24 72 -32 20 -29 55
-73 79 -96 42 -42 44 -47 49 -115 4 -62 8 -72 24 -72 19 0 29 13 40 48 5 15 9
16 26 7 34 -18 35 -38 4 -102 -22 -46 -37 -64 -61 -75 -29 -12 -33 -18 -33
-51 0 -53 -12 -65 -62 -66 -66 -3 -68 -6 -68 -105 0 -54 -4 -91 -12 -99 -9 -9
-113 -12 -408 -12 -295 0 -399 3 -408 12 -17 17 -17 3359 0 3376 17 17 1189
17 1206 0z m-1796 -43 c8 -18 9 -35 2 -53 l-9 -27 -188 -5 c-104 -3 -197 -2
-208 2 -14 6 -19 17 -19 46 0 21 5 43 12 50 9 9 68 12 205 12 l193 0 12 -25z
m256 -154 c9 -5 12 -25 10 -57 l-3 -49 -464 -3 c-334 -1 -468 1 -477 9 -17 14
-18 81 -2 97 14 14 914 17 936 3z m-63 -226 l0 -50 -402 -3 -402 -2 -6 34 c-4
19 -2 43 4 55 12 21 13 21 409 19 l397 -3 0 -50z m-859 -122 c-7 -7 -26 7 -26
19 0 6 6 6 15 -2 9 -7 13 -15 11 -17z m782 -5 c14 -14 16 -67 3 -87 -7 -11
-61 -14 -277 -16 -147 -1 -293 1 -324 4 l-55 6 -3 38 c-6 69 -15 67 332 67
229 0 315 -3 324 -12z m-738 -13 c7 -9 11 -17 8 -20 -2 -2 -12 4 -21 15 -9 11
-13 20 -8 20 5 0 14 -7 21 -15z m478 -154 c9 -5 12 -25 10 -57 l-3 -49 -54 -3
c-89 -5 -101 1 -101 51 0 24 5 48 12 55 14 14 116 16 136 3z m270 -176 c12
-12 13 -2454 2 -2475 -10 -19 -22 -20 -213 -20 -111 0 -208 4 -215 8 -8 6 -13
43 -14 121 -3 112 -2 113 25 135 33 27 33 29 3 58 -15 14 -31 49 -41 88 -26
97 -25 103 13 111 81 17 68 55 -20 61 l-63 4 -77 79 -77 80 2 875 2 874 25 6
c33 8 640 3 648 -5z m2216 -181 c25 -10 19 -40 -15 -68 -40 -34 -58 -33 -99 9
-28 29 -31 37 -20 50 13 15 101 21 134 9z m-195 -64 c99 -82 99 -76 -20 -196
-61 -61 -112 -104 -123 -104 -27 0 -221 189 -221 215 0 24 93 73 200 106 39
11 75 22 80 24 20 7 25 4 84 -45z m476 8 c106 -34 170 -68 170 -88 0 -9 -50
-64 -112 -123 -85 -82 -116 -106 -127 -100 -27 15 -216 205 -216 217 0 14 109
122 130 129 20 7 47 0 155 -35z m296 -160 c49 -35 141 -126 165 -163 12 -18
13 -29 5 -43 -17 -32 -223 -222 -240 -222 -16 1 -231 203 -231 218 0 12 235
242 247 242 5 0 30 -14 54 -32z m-1089 -85 c60 -59 108 -115 108 -123 0 -19
-201 -220 -221 -220 -16 0 -239 221 -239 237 0 35 188 213 225 213 12 0 63
-43 127 -107z m569 -10 c60 -59 109 -111 109 -117 0 -15 -209 -216 -225 -216
-21 0 -225 200 -225 220 0 16 210 220 226 220 4 0 56 -48 115 -107z m-4827
-49 c14 -13 16 -51 16 -255 0 -147 -4 -248 -10 -260 -10 -17 -22 -19 -144 -19
-106 0 -136 -3 -146 -15 -7 -8 -10 -22 -6 -30 4 -12 29 -15 140 -15 146 0 166
-7 166 -55 0 -48 -20 -55 -166 -55 -116 0 -136 -2 -141 -16 -13 -34 24 -44
163 -44 154 0 144 10 144 -133 0 -127 0 -127 -120 -127 -55 0 -133 -5 -175
-11 -46 -7 -80 -8 -85 -3 -6 6 -10 230 -10 523 -1 412 2 516 12 522 7 5 88 9
180 9 138 0 169 -3 182 -16z m3980 -215 c58 -56 106 -109 106 -118 0 -20 -200
-221 -220 -221 -27 0 -130 112 -130 141 0 67 101 299 130 299 4 0 55 -46 114
-101z m1649 4 c49 -107 67 -161 67 -209 0 -26 -11 -42 -60 -88 -34 -31 -67
-56 -75 -56 -20 0 -225 199 -225 219 0 21 211 231 232 231 9 0 33 -38 61 -97z
m-1077 -15 c57 -56 104 -107 104 -113 0 -19 -206 -215 -226 -215 -22 0 -224
198 -224 219 0 21 202 210 224 211 11 0 63 -43 122 -102z m561 0 c57 -57 103
-110 103 -118 0 -9 -47 -62 -104 -118 -80 -79 -108 -101 -122 -96 -24 8 -224
205 -224 219 0 19 206 215 226 215 10 0 64 -45 121 -102z m-842 -278 l110
-110 -100 -101 c-55 -55 -108 -105 -117 -110 -14 -8 -38 9 -123 87 -58 54
-110 105 -115 115 -8 14 9 36 98 123 59 58 114 106 122 106 9 0 65 -49 125
-110z m556 8 c60 -56 109 -109 109 -117 0 -19 -200 -221 -218 -221 -17 0 -226
197 -230 218 -4 14 203 220 221 221 5 1 58 -45 118 -101z m573 -9 c58 -55 106
-106 106 -112 0 -21 -203 -217 -225 -217 -24 0 -225 197 -225 220 0 19 200
209 221 210 9 0 64 -45 123 -101z m-1627 -61 c18 -18 33 -38 33 -45 0 -13 -57
-73 -69 -73 -19 0 -31 29 -31 75 0 44 12 75 29 75 3 0 20 -14 38 -32z m1947 6
c17 -44 2 -134 -22 -134 -18 0 -82 58 -82 74 0 17 63 76 81 76 9 0 20 -7 23
-16z m-8690 -50 c14 -5 16 -35 16 -229 0 -123 -4 -226 -9 -229 -15 -10 -39 18
-191 223 -105 142 -147 208 -140 215 16 16 290 33 324 20z m389 -10 c22 -4 37
-12 37 -21 0 -8 -24 -44 -53 -81 -29 -37 -102 -131 -161 -210 -59 -79 -113
-141 -119 -139 -18 6 -22 434 -5 455 11 12 33 14 138 8 69 -3 142 -9 163 -12z
m9172 -56 c20 -37 20 -37 -1 -64 -27 -37 -70 -68 -82 -60 -10 6 -7 21 20 129
12 48 35 46 63 -5z m201 25 c-3 -10 -21 -80 -40 -155 -35 -137 -98 -330 -151
-463 -81 -206 -292 -603 -352 -662 -22 -23 -24 -23 -331 -23 -226 0 -311 3
-320 12 -8 8 -12 45 -12 99 0 48 -4 91 -10 94 -5 3 -31 8 -57 10 -27 1 -55 6
-64 10 -14 5 -119 230 -119 254 0 4 33 36 73 71 124 108 189 191 263 335 44
86 63 99 97 67 47 -43 152 -90 228 -103 67 -11 87 -10 153 4 175 39 363 174
551 396 57 67 103 94 91 54z m768 -50 c20 -37 36 -75 36 -84 0 -10 -30 -45
-66 -78 -64 -58 -104 -77 -104 -47 0 11 54 230 65 264 10 28 36 8 69 -55z
m296 56 c0 -30 -66 -269 -115 -415 -90 -267 -237 -598 -271 -611 -29 -11 -25
-20 -170 356 -61 158 -73 197 -62 207 7 7 45 26 84 42 39 16 91 42 115 57 81
51 209 165 301 271 84 95 118 122 118 93z m960 5 c0 -3 -14 -61 -30 -127 -73
-292 -268 -792 -309 -792 -16 0 -203 459 -195 479 3 7 29 26 57 41 117 63 212
144 357 303 80 88 120 120 120 96z m170 -9 c0 -8 -2 -15 -4 -15 -2 0 -6 7 -10
15 -3 8 -1 15 4 15 6 0 10 -7 10 -15z m-12414 -9 c6 -16 -94 -425 -109 -444
-6 -7 -16 -12 -22 -10 -16 4 -339 346 -343 364 -5 22 22 30 263 78 140 28 203
32 211 12z m1289 -25 c77 -16 152 -34 168 -40 47 -18 58 -3 -187 -263 -66 -71
-125 -128 -133 -128 -7 0 -18 10 -23 23 -15 34 -100 396 -100 424 0 26 0 26
68 19 37 -3 130 -19 207 -35z m11054 -116 c6 -66 17 -185 25 -265 17 -157 31
-297 46 -455 6 -55 15 -138 20 -185 21 -189 22 -221 10 -235 -17 -20 -367 -22
-392 -2 -20 15 -108 234 -108 268 0 14 21 67 46 119 98 200 226 546 274 742
38 158 40 162 55 147 9 -9 18 -57 24 -134z m-4932 33 c66 -66 103 -110 103
-124 0 -14 -36 -55 -110 -124 -91 -84 -113 -100 -125 -90 -22 18 -83 153 -105
233 -11 39 -20 73 -20 75 0 12 126 132 139 132 9 0 62 -46 118 -102z m2897 80
c3 -13 14 -122 26 -243 29 -304 78 -780 91 -898 9 -76 9 -100 -1 -112 -18 -22
-648 -23 -656 -1 -3 8 19 56 50 106 168 279 346 711 431 1050 15 57 29 108 31
112 10 15 24 8 28 -14z m1116 -475 c69 -690 73 -735 69 -763 l-4 -25 -246 -3
c-224 -2 -247 -1 -262 15 -19 22 -57 117 -57 144 0 12 40 101 88 198 49 97
110 232 136 301 26 69 51 135 56 147 15 38 98 314 115 388 19 77 33 101 48 86
5 -5 31 -224 57 -488z m-3441 383 c82 -83 102 -108 97 -124 -9 -28 -200 -202
-223 -202 -21 0 -223 198 -223 219 0 21 202 210 225 211 13 0 59 -39 124 -104z
m560 1 c61 -59 101 -106 101 -118 0 -19 -189 -211 -214 -217 -20 -5 -226 197
-226 221 0 27 198 218 222 215 9 -2 62 -47 117 -101z m519 42 c72 -71 73 -77
37 -186 -35 -103 -83 -193 -104 -193 -20 1 -231 202 -231 220 0 15 209 219
225 220 6 0 38 -28 73 -61z m3392 -18 c11 -29 19 -56 16 -58 -2 -2 -9 12 -16
31 -6 20 -15 38 -20 41 -9 6 25 -85 144 -378 42 -104 76 -191 76 -193 0 -2
-38 -4 -84 -4 -55 0 -87 4 -93 13 -9 10 -18 88 -53 452 -4 44 -11 103 -15 130
-7 45 -6 48 8 35 9 -8 25 -39 37 -69z m-975 39 c17 -33 20 -53 4 -30 -16 24
-2 -21 47 -148 24 -63 44 -120 44 -128 0 -16 -75 -20 -84 -5 -5 7 -36 299 -36
333 0 16 10 8 25 -22z m-12841 4 c14 -14 16 -83 16 -610 0 -391 -4 -602 -10
-615 -10 -17 -23 -19 -160 -19 -138 0 -150 1 -160 20 -7 13 -10 212 -8 620 3
521 5 602 18 610 8 5 77 10 152 10 111 0 140 -3 152 -16z m4037 6 c18 -10 19
-24 19 -258 l0 -248 -46 -44 c-64 -62 -130 -157 -162 -232 -25 -59 -27 -75
-32 -257 -5 -211 -8 -221 -63 -207 l-27 6 0 619 c0 582 1 620 18 624 35 9 274
7 293 -3z m7754 -51 c15 -33 25 -62 23 -65 -2 -2 -12 15 -22 37 -10 22 -20 39
-22 37 -1 -2 21 -64 50 -138 59 -148 58 -164 -9 -136 -32 14 -35 18 -35 58 0
24 -7 90 -15 148 -17 127 -17 120 -6 120 4 0 21 -27 36 -61z m-10184 -151
c165 -217 183 -243 174 -258 -7 -11 -422 -14 -449 -4 -9 3 -16 15 -16 26 0 21
97 415 106 430 14 23 43 -8 185 -194z m716 175 c79 -316 99 -410 91 -425 -8
-16 -29 -18 -233 -18 -219 0 -225 1 -225 20 0 16 149 223 304 422 28 35 54 36
63 1z m8877 -74 c-14 -46 -27 -90 -30 -96 -5 -18 -68 -55 -72 -43 -4 11 118
233 124 227 3 -2 -7 -42 -22 -88z m978 68 c-6 -7 -20 -46 -32 -87 -47 -165
-49 -169 -87 -185 -74 -31 -71 -17 22 137 42 67 78 131 81 140 4 10 10 15 16
12 5 -4 5 -10 0 -17z m-11426 -51 c3 -8 -10 -72 -29 -143 -19 -70 -38 -143
-42 -161 -4 -18 -13 -36 -20 -38 -7 -3 -38 14 -67 38 -30 24 -84 66 -120 93
-73 54 -86 72 -66 91 14 14 305 133 326 134 7 0 15 -6 18 -14z m2414 -47 c137
-55 170 -73 170 -93 0 -20 -226 -191 -252 -191 -21 0 -26 13 -65 159 -32 121
-40 163 -31 173 13 16 19 15 178 -48z m-2238 -56 c179 -186 239 -254 235 -266
-3 -9 -58 -13 -211 -15 -185 -2 -207 -1 -213 14 -3 9 11 85 32 168 39 155 50
186 64 186 5 0 46 -39 93 -87z m1986 75 c5 -7 28 -83 50 -168 29 -110 38 -160
31 -172 -9 -16 -29 -18 -213 -18 -174 0 -205 2 -210 15 -4 11 46 70 156 185
89 94 165 170 169 170 3 0 11 -6 17 -12z m10942 -43 c0 -5 -5 -3 -10 5 -5 8
-10 20 -10 25 0 6 5 3 10 -5 5 -8 10 -19 10 -25z m-2004 -62 c-4 -4 -36 73
-35 85 0 4 9 -13 20 -37 11 -24 18 -46 15 -48z m1054 42 c0 -5 -5 -3 -10 5 -5
8 -10 20 -10 25 0 6 5 3 10 -5 5 -8 10 -19 10 -25z m979 -50 c0 -5 -6 1 -14
15 -8 14 -14 30 -14 35 0 6 6 -1 14 -15 8 -14 14 -29 14 -35z m-14285 22 c13
-10 17 -24 14 -62 l-3 -50 -45 -3 c-71 -4 -90 -11 -90 -31 0 -23 19 -31 70
-31 64 0 70 -6 70 -69 0 -31 -5 -62 -12 -69 -7 -7 -32 -12 -57 -12 -55 0 -74
-11 -69 -36 3 -16 15 -20 68 -24 l65 -5 3 -64 c3 -74 -2 -81 -65 -81 -54 0
-73 -8 -73 -31 0 -20 19 -27 90 -31 l45 -3 3 -58 c4 -72 -7 -87 -63 -87 -56 0
-75 -8 -75 -31 0 -20 19 -27 90 -31 l45 -3 3 -109 c2 -81 -1 -112 -10 -118 -7
-4 -104 -8 -216 -8 l-202 0 -36 33 -36 32 9 85 8 85 60 5 c48 4 61 9 63 24 6
27 -15 36 -85 36 l-61 0 -35 48 c-19 26 -47 57 -61 69 l-26 23 0 298 c0 218 3
301 12 310 18 18 577 17 602 -1z m13326 -22 c0 -5 -5 -3 -10 5 -5 8 -10 20
-10 25 0 6 5 3 10 -5 5 -8 10 -19 10 -25z m-1046 -55 c5 -17 4 -20 -2 -10 -5
8 -13 26 -16 40 -5 17 -4 20 2 10 5 -8 13 -26 16 -40z m-2824 -56 c54 -53 102
-105 106 -117 5 -16 -10 -36 -77 -101 -46 -45 -101 -95 -122 -113 -38 -32 -39
-32 -70 -16 -43 22 -197 179 -197 200 0 23 220 243 242 243 10 0 63 -43 118
-96z m572 -11 c60 -59 108 -113 108 -119 0 -15 -214 -214 -230 -214 -19 0
-220 201 -220 219 0 20 200 221 220 221 8 0 63 -48 122 -107z m3318 72 c0 -5
-5 -3 -10 5 -5 8 -10 20 -10 25 0 6 5 3 10 -5 5 -8 10 -19 10 -25z m1005 -110
c30 -76 54 -140 51 -142 -2 -2 -27 56 -56 129 -64 163 -65 164 -57 157 4 -3
32 -68 62 -144z m-3746 21 c129 -131 126 -117 35 -215 -49 -53 -136 -121 -155
-121 -12 0 -239 221 -239 233 0 21 204 217 225 217 14 0 62 -42 134 -114z
m4407 93 c19 -11 39 -30 45 -41 10 -18 17 -19 85 -13 91 9 148 -9 193 -60 60
-68 54 -156 -15 -222 -39 -38 -44 -48 -44 -87 0 -80 -47 -149 -130 -192 -49
-25 -154 -23 -206 4 -131 68 -164 226 -65 316 30 28 26 42 -20 72 -27 17 -47
40 -60 69 -18 41 -18 46 -3 85 33 83 142 117 220 69z m-14156 -84 c128 -101
127 -111 -15 -108 -138 2 -215 11 -215 27 0 6 17 33 39 58 21 26 42 59 45 73
11 42 44 30 146 -50z m3009 -4 c69 -92 65 -103 -5 -13 -30 40 -61 72 -67 72
-9 0 -9 -2 0 -8 14 -9 103 -123 103 -133 0 -9 -114 -21 -225 -22 -74 -2 -90 1
-90 13 0 18 159 147 189 153 11 2 26 5 33 6 6 0 34 -30 62 -68z m-3319 -25 c0
-9 -32 -36 -41 -36 -6 0 -5 8 1 20 9 17 40 29 40 16z m3486 -10 c14 -11 16
-18 8 -26 -8 -8 -14 -7 -24 5 -7 8 -9 15 -4 15 5 0 2 5 -6 10 -8 5 -10 10 -4
10 5 0 19 -6 30 -14z m1611 -3 c3 -7 -15 -22 -39 -34 -151 -77 -276 -204 -333
-339 -30 -71 -31 -72 -151 -74 -142 -3 -164 1 -164 28 0 40 74 147 149 218 56
52 99 81 175 118 151 73 352 119 363 83z m758 -13 c134 -35 270 -108 358 -190
78 -73 147 -175 147 -218 l0 -22 -712 -2 c-392 -2 -745 -3 -785 -3 -92 0 -101
8 -74 71 47 106 174 230 301 294 67 34 205 78 280 90 30 5 134 7 230 5 139 -3
191 -8 255 -25z m-1455 7 c0 -7 -24 -26 -54 -41 -126 -66 -240 -184 -302 -312
-19 -40 -41 -77 -47 -81 -19 -11 -231 -3 -239 10 -11 18 49 122 108 187 98
105 212 175 349 215 33 10 71 21 85 26 41 13 100 11 100 -4z m320 -1 c0 -8
-32 -32 -72 -53 -100 -53 -223 -175 -271 -273 -21 -40 -37 -79 -37 -86 0 -27
-41 -36 -142 -32 -107 5 -123 13 -108 54 30 77 139 202 233 266 75 51 140 81
247 112 99 29 150 33 150 12z m1464 -11 c222 -64 387 -186 471 -348 24 -46 27
-59 17 -69 -14 -14 -121 -21 -190 -12 -39 5 -45 9 -58 42 -55 140 -162 264
-296 342 -123 71 -99 90 56 45z m5560 8 c52 -7 73 -29 97 -103 6 -19 59 -153
116 -298 l105 -263 -40 -67 c-68 -113 -67 -112 -186 -112 -71 0 -107 4 -114
13 -6 7 -22 123 -36 257 -65 627 -61 571 -45 581 8 5 23 7 34 4 11 -3 42 -8
69 -12z m1109 5 c9 -7 64 -134 123 -283 l105 -270 -32 -64 c-48 -93 -124 -208
-148 -220 -24 -13 -90 -14 -109 -2 -10 6 -25 119 -54 405 -22 219 -37 404 -34
412 3 8 20 14 38 15 18 1 44 5 58 9 35 11 34 11 53 -2z m-3669 -203 c49 -46
85 -88 81 -94 -9 -15 -361 -15 -371 0 -9 16 156 179 181 179 11 -1 60 -38 109
-85z m560 0 c49 -46 85 -88 81 -94 -9 -16 -351 -15 -361 0 -8 14 156 179 177
179 8 -1 54 -39 103 -85z m-6232 28 c3 -27 1 -56 -4 -65 -8 -17 -103 -18
-1778 -18 -972 0 -1775 3 -1784 6 -12 5 -16 20 -16 58 0 29 3 56 7 59 3 4 808
7 1789 7 l1782 0 4 -47z m10368 2 c0 -5 -5 -3 -10 5 -5 8 -10 20 -10 25 0 6 5
3 10 -5 5 -8 10 -19 10 -25z m47 -113 c13 -8 53 -96 53 -117 0 -19 -22 -23
-140 -23 -138 0 -146 4 -155 69 -10 72 1 79 129 79 56 0 106 -4 113 -8z m263
-2 c17 -11 40 -104 29 -121 -8 -13 -96 -20 -138 -11 -31 6 -78 107 -60 128 13
16 145 20 169 4z m784 -6 c14 -13 16 -51 16 -265 0 -154 -4 -258 -10 -270 -10
-18 -23 -19 -225 -19 -144 0 -216 4 -221 11 -11 19 -14 110 -3 130 8 16 21 19
77 19 100 0 107 8 107 118 0 80 3 93 27 128 31 46 48 86 48 118 0 37 19 46 96
46 53 0 77 -4 88 -16z m-11749 -35 c-5 -7 35 -10 134 -7 138 3 142 2 137 -17
-3 -11 -6 -122 -6 -247 l0 -228 -605 0 -606 0 -136 140 c-143 147 -164 160
-205 123 -15 -13 -18 -32 -18 -111 0 -79 -3 -99 -21 -123 l-20 -29 -965 0
c-530 0 -964 3 -965 8 -6 89 -9 373 -4 420 l7 64 96 -3 c62 -2 104 1 117 9 27
16 3070 17 3060 1z m6687 -56 c25 -29 101 -212 94 -228 -5 -13 -70 -15 -498
-16 -271 -1 -522 -2 -558 -2 -162 -3 -230 3 -237 18 -6 17 70 197 95 228 14
16 53 17 552 17 499 0 538 -1 552 -17z m-11124 -72 c44 -23 83 -63 108 -111
18 -35 20 -66 13 -213 l-3 -67 -364 2 c-418 3 -395 -2 -368 90 11 41 30 72 66
111 59 65 110 88 198 91 59 2 64 4 92 38 61 74 177 100 258 59z m15225 -38
c22 -26 50 -100 43 -118 -4 -12 -32 -15 -164 -15 -116 0 -162 3 -169 13 -15
18 -23 98 -12 119 9 16 25 18 148 18 119 0 140 -2 154 -17z m329 -21 c40 -21
83 -41 96 -45 19 -4 23 -11 20 -34 l-3 -28 -152 -3 -153 -3 -20 33 c-22 37
-35 91 -25 107 3 6 40 11 85 11 72 0 85 -3 152 -38z m-7658 2 c19 -18 21 -55
4 -72 -17 -17 -2929 -17 -2946 0 -17 17 -15 54 4 72 14 14 161 16 1469 16
1308 0 1455 -2 1469 -16z m7969 -46 c8 -12 7 -24 -1 -43 -11 -24 -16 -26 -65
-23 -50 3 -52 4 -52 33 0 26 5 31 40 42 49 14 65 13 78 -9z m-7969 -114 c19
-18 22 -124 6 -155 -11 -19 -38 -19 -1473 -19 -1125 0 -1466 3 -1475 12 -18
18 -16 143 4 162 14 14 161 16 1469 16 1308 0 1455 -2 1469 -16z m6470 -66
c39 -104 36 -110 -66 -106 -76 3 -83 5 -82 23 1 28 92 167 107 162 7 -2 25
-38 41 -79z m-2995 38 c7 -9 11 -40 9 -78 l-3 -63 -799 -3 c-633 -2 -801 0
-808 10 -12 20 -9 123 4 136 9 9 200 12 799 12 665 0 788 -2 798 -14z m3963
-46 c49 -97 53 -95 -169 -98 -156 -2 -194 0 -206 12 -19 19 -30 115 -15 133 8
11 49 13 187 11 l176 -3 27 -55z m336 -8 c4 -88 -1 -92 -113 -92 -108 0 -123
8 -150 82 -28 77 -25 79 127 76 l133 -3 3 -63z m-12201 -159 c211 -219 360
-385 410 -456 34 -49 26 -64 -48 -89 -55 -20 -286 -71 -394 -88 -33 -5 -87
-14 -120 -19 -104 -18 -95 -61 -95 435 0 419 1 434 19 434 11 0 100 -85 228
-217z m9853 116 c14 -26 -3 -49 -36 -49 -32 0 -39 16 -20 45 20 30 42 32 56 4z
m-10166 -135 c3 -9 6 -140 6 -293 0 -338 5 -324 -102 -297 -94 24 -207 62
-224 77 -8 6 -14 19 -14 28 0 18 104 194 223 376 85 131 98 143 111 109z m51
-739 c220 -8 498 -16 617 -17 124 -2 218 -7 218 -12 0 -5 -3 -6 -7 -2 -4 4
-15 -17 -24 -46 l-16 -53 -538 -3 -538 -2 -68 69 c-38 38 -69 71 -69 75 0 8
-42 8 425 -9z"/>
<path d="M8377 10693 c-4 -3 -7 -64 -7 -134 0 -109 2 -128 17 -133 9 -4 21 -2
27 4 15 15 21 223 7 249 -12 21 -31 27 -44 14z"/>
<path d="M8547 10693 c-4 -3 -7 -64 -7 -135 0 -106 3 -130 15 -134 35 -14 45
14 45 131 0 63 -3 120 -6 129 -6 16 -35 22 -47 9z"/>
<path d="M8717 10693 c-4 -3 -7 -64 -7 -135 0 -110 2 -130 16 -135 32 -12 44
25 44 128 0 54 -4 109 -10 123 -9 25 -29 34 -43 19z"/>
<path d="M8887 10693 c-4 -3 -7 -64 -7 -135 0 -110 2 -130 16 -135 33 -13 45
25 43 137 -1 58 -6 113 -11 123 -9 17 -29 23 -41 10z"/>
<path d="M8041 10146 c-8 -9 -11 -56 -9 -142 3 -117 5 -129 22 -132 30 -6 36
16 36 136 0 134 -16 178 -49 138z"/>
<path d="M8211 10151 c-10 -6 -14 -41 -15 -131 -2 -100 0 -126 14 -142 15 -19
17 -19 33 -3 14 13 17 37 17 131 0 136 -11 169 -49 145z"/>
<path d="M8381 10151 c-8 -5 -11 -46 -9 -142 3 -130 4 -134 26 -137 12 -2 22
-2 23 0 4 14 8 247 3 260 -6 20 -26 29 -43 19z"/>
<path d="M8547 10153 c-4 -3 -7 -66 -7 -138 0 -110 3 -135 16 -146 14 -11 18
-10 30 6 18 25 20 255 2 273 -13 13 -31 16 -41 5z"/>
<path d="M8722 10152 c-9 -7 -12 -42 -10 -143 3 -128 4 -134 24 -137 29 -4 35
25 33 155 -2 75 -6 109 -16 119 -17 16 -15 16 -31 6z"/>
<path d="M8891 10146 c-8 -9 -11 -56 -9 -142 3 -117 5 -129 22 -132 30 -6 36
16 36 136 0 134 -16 178 -49 138z"/>
<path d="M7697 9643 c-4 -3 -7 -46 -7 -93 0 -97 13 -125 44 -95 12 12 16 36
16 90 0 40 -3 80 -6 89 -6 16 -35 22 -47 9z"/>
<path d="M7864 9637 c-3 -8 -4 -51 -2 -98 3 -73 5 -84 22 -87 10 -2 22 2 27
10 12 19 11 145 -1 169 -12 22 -38 25 -46 6z"/>
<path d="M8034 9637 c-3 -8 -4 -51 -2 -98 3 -73 5 -84 22 -87 10 -2 22 2 27
10 13 20 11 162 -3 176 -16 16 -37 15 -44 -1z"/>
<path d="M8204 9637 c-3 -8 -4 -51 -2 -98 3 -73 5 -84 22 -87 10 -2 22 2 27
10 13 20 11 162 -3 176 -16 16 -37 15 -44 -1z"/>
<path d="M8377 9643 c-4 -3 -7 -46 -7 -95 0 -73 3 -90 16 -95 10 -4 22 0 28
10 16 21 20 155 5 173 -12 15 -31 18 -42 7z"/>
<path d="M8544 9637 c-3 -8 -4 -51 -2 -98 3 -73 5 -84 22 -87 10 -2 22 2 27
10 10 15 12 148 3 172 -7 19 -43 21 -50 3z"/>
<path d="M8715 9637 c-3 -7 -5 -52 -3 -98 3 -76 5 -84 23 -84 19 0 20 7 20 95
0 82 -2 95 -18 98 -9 2 -19 -3 -22 -11z"/>
<path d="M8884 9637 c-3 -8 -4 -52 -2 -98 3 -77 5 -84 24 -87 15 -2 23 4 28
20 9 37 7 138 -4 159 -12 22 -38 25 -46 6z"/>
<path d="M7861 9116 c-8 -9 -11 -44 -9 -96 2 -67 7 -85 21 -94 27 -17 37 8 37
100 0 93 -18 127 -49 90z"/>
<path d="M8030 9111 c-5 -11 -10 -51 -10 -88 0 -75 16 -111 44 -100 13 5 16
22 16 95 0 82 -8 112 -32 112 -4 0 -12 -9 -18 -19z"/>
<path d="M8202 9118 c-14 -14 -16 -166 -2 -188 7 -12 13 -12 27 -4 14 9 19 27
21 94 3 96 -13 131 -46 98z"/>
<path d="M8541 9116 c-8 -9 -11 -44 -9 -96 2 -67 7 -85 21 -94 27 -17 37 8 37
100 0 93 -18 127 -49 90z"/>
<path d="M8882 9118 c-18 -18 -16 -172 3 -188 12 -10 18 -10 30 0 11 9 15 34
15 94 0 74 -9 106 -30 106 -3 0 -11 -5 -18 -12z"/>
<path d="M8366 9105 c-3 -9 -6 -49 -6 -90 0 -80 16 -109 45 -85 12 10 15 31
13 99 -3 79 -5 86 -24 89 -13 2 -24 -4 -28 -13z"/>
<path d="M8707 9114 c-4 -4 -7 -44 -7 -89 0 -61 4 -86 15 -95 12 -10 18 -10
30 0 12 10 15 31 13 99 -3 78 -5 86 -23 89 -12 2 -24 0 -28 -4z"/>
<path d="M11120 10584 c-19 -22 -19 -152 0 -164 8 -5 18 -10 23 -10 21 0 35
103 21 157 -8 27 -29 36 -44 17z"/>
<path d="M10854 10577 c-3 -8 -4 -45 -2 -83 3 -58 6 -69 22 -72 10 -2 22 2 27
10 10 15 12 119 3 142 -7 19 -43 21 -50 3z"/>
<path d="M11366 10575 c-9 -24 -7 -128 3 -143 5 -8 17 -12 27 -10 17 3 19 13
19 83 0 74 -2 80 -21 83 -13 2 -24 -4 -28 -13z"/>
<path d="M11624 10577 c-3 -8 -4 -45 -2 -83 3 -58 6 -69 22 -72 10 -2 22 2 27
10 10 15 12 119 3 142 -7 19 -43 21 -50 3z"/>
<path d="M11115 10289 c-4 -6 -7 -41 -7 -79 0 -73 5 -90 27 -90 22 0 35 34 35
90 0 28 -5 60 -10 71 -12 21 -35 25 -45 8z"/>
<path d="M11633 10293 c-20 -8 -18 -162 2 -169 8 -4 22 -1 30 6 21 18 21 133
-1 154 -8 9 -16 16 -17 15 -1 0 -8 -3 -14 -6z"/>
<path d="M10857 10284 c-10 -11 -8 -137 3 -154 7 -12 13 -12 27 -4 15 9 18 25
18 85 0 67 -2 74 -20 77 -12 2 -24 0 -28 -4z"/>
<path d="M11366 10275 c-3 -9 -6 -43 -6 -75 0 -61 16 -88 45 -76 13 5 15 20
13 83 -3 71 -5 78 -24 81 -13 2 -24 -4 -28 -13z"/>
<path d="M11121 10001 c-8 -5 -15 -34 -18 -72 -4 -53 -2 -68 13 -86 29 -35 47
-15 52 54 4 56 -9 113 -25 113 -5 0 -14 -4 -22 -9z"/>
<path d="M10857 9994 c-10 -10 -8 -136 2 -152 5 -8 17 -12 27 -10 17 3 19 13
19 83 0 73 -2 80 -20 83 -12 2 -24 0 -28 -4z"/>
<path d="M11366 9985 c-3 -9 -6 -43 -6 -75 0 -61 16 -88 45 -76 13 5 15 20 13
83 -3 71 -5 78 -24 81 -13 2 -24 -4 -28 -13z"/>
<path d="M11624 9987 c-3 -8 -4 -45 -2 -83 3 -58 6 -69 22 -72 10 -2 22 2 27
10 10 15 12 119 3 142 -7 19 -43 21 -50 3z"/>
<path d="M10862 9698 c-18 -18 -15 -143 3 -158 29 -24 45 5 45 81 0 56 -3 70
-18 78 -13 7 -23 6 -30 -1z"/>
<path d="M11110 9684 c-13 -33 -13 -110 0 -135 25 -46 60 -9 60 65 0 56 -15
96 -35 96 -9 0 -20 -12 -25 -26z"/>
<path d="M11370 9691 c-16 -31 -13 -136 5 -151 32 -26 45 -5 45 73 0 88 -24
125 -50 78z"/>
<path d="M11633 9703 c-20 -8 -18 -162 2 -169 8 -4 22 -1 30 6 27 23 16 172
-13 169 -4 0 -13 -3 -19 -6z"/>
<path d="M10854 9397 c-3 -8 -4 -45 -2 -83 3 -66 4 -69 28 -69 25 0 25 1 25
80 0 75 -1 80 -23 83 -12 2 -24 -3 -28 -11z"/>
<path d="M11110 9391 c-11 -21 -13 -93 -4 -128 8 -28 30 -36 49 -17 15 16 21
115 9 148 -8 22 -41 20 -54 -3z"/>
<path d="M11366 9395 c-9 -24 -7 -128 3 -143 5 -8 17 -12 27 -10 17 3 19 13
19 83 0 74 -2 80 -21 83 -13 2 -24 -4 -28 -13z"/>
<path d="M10862 9108 c-18 -18 -16 -142 3 -158 29 -24 45 5 45 79 0 60 -10 91
-30 91 -3 0 -11 -5 -18 -12z"/>
<path d="M11115 9108 c-9 -30 -12 -125 -4 -145 10 -28 35 -30 49 -4 13 25 13
102 0 135 -10 27 -38 35 -45 14z"/>
<path d="M10857 8813 c-4 -3 -7 -39 -7 -78 0 -80 16 -109 45 -85 15 13 22 121
9 154 -6 16 -35 22 -47 9z"/>
<path d="M11112 8803 c-10 -19 -7 -136 3 -153 10 -17 34 -11 45 11 12 21 9
127 -4 147 -11 18 -34 15 -44 -5z"/>
<path d="M10862 8518 c-18 -18 -16 -142 3 -158 29 -24 45 5 45 79 0 60 -10 91
-30 91 -3 0 -11 -5 -18 -12z"/>
<path d="M11112 8508 c-9 -27 -7 -131 2 -147 11 -17 34 -13 46 8 5 11 10 43
10 71 0 57 -13 90 -36 90 -8 0 -18 -10 -22 -22z"/>
<path d="M10855 8207 c-4 -13 -5 -50 -3 -82 3 -56 4 -60 28 -60 24 0 25 4 28
60 4 77 -3 105 -28 105 -12 0 -22 -9 -25 -23z"/>
<path d="M11109 8208 c-23 -44 1 -157 34 -158 24 0 37 123 17 161 -14 25 -37
24 -51 -3z"/>
<path d="M10862 7928 c-18 -18 -16 -142 3 -158 29 -24 45 5 45 79 0 60 -10 91
-30 91 -3 0 -11 -5 -18 -12z"/>
<path d="M11114 7929 c-3 -6 -8 -39 -10 -73 -5 -73 12 -109 43 -90 21 13 31
121 13 154 -12 22 -35 26 -46 9z"/>
<path d="M11372 7928 c-7 -7 -12 -40 -12 -79 0 -70 14 -97 45 -85 22 8 22 161
-1 170 -20 8 -18 8 -32 -6z"/>
<path d="M10855 7617 c-4 -13 -5 -50 -3 -82 2 -49 6 -60 22 -63 10 -2 22 2 27
10 13 20 11 132 -3 146 -19 19 -37 14 -43 -11z"/>
<path d="M11112 7623 c-14 -37 -8 -132 10 -150 24 -23 39 -7 45 51 8 68 -4
116 -28 116 -11 0 -23 -8 -27 -17z"/>
<path d="M11372 7628 c-14 -14 -16 -126 -3 -146 5 -8 17 -12 27 -10 17 3 19
13 19 83 0 63 -3 80 -15 83 -9 1 -21 -3 -28 -10z"/>
<path d="M9662 9688 c-32 -32 -7 -48 73 -48 63 0 93 22 60 46 -23 17 -117 18
-133 2z"/>
<path d="M9938 9693 c-10 -2 -18 -13 -18 -24 0 -23 29 -31 96 -27 38 2 50 7
52 22 2 10 -2 22 -10 27 -13 9 -90 10 -120 2z"/>
<path d="M9657 9433 c-15 -15 -6 -43 16 -48 44 -12 119 -1 131 18 8 14 8 20
-4 27 -17 11 -133 14 -143 3z"/>
<path d="M9927 9433 c-13 -12 -7 -41 9 -47 29 -11 110 -6 129 8 16 12 17 16 6
30 -10 12 -31 16 -76 16 -34 0 -65 -3 -68 -7z"/>
<path d="M9653 9164 c-9 -25 24 -44 77 -44 53 0 86 19 77 44 -5 13 -21 16 -77
16 -56 0 -72 -3 -77 -16z"/>
<path d="M9923 9164 c-9 -24 11 -36 64 -41 54 -5 90 13 80 41 -9 23 -135 24
-144 0z"/>
<path d="M9653 8904 c-10 -27 24 -43 83 -41 58 3 80 16 71 41 -9 24 -145 23
-154 0z"/>
<path d="M9923 8904 c-9 -24 9 -34 66 -38 57 -3 88 12 78 38 -9 23 -135 24
-144 0z"/>
<path d="M9669 8658 c-12 -5 -19 -15 -17 -25 5 -26 145 -32 154 -8 4 9 2 21
-3 26 -12 12 -107 17 -134 7z"/>
<path d="M9942 8663 c-17 -3 -22 -10 -20 -26 3 -20 10 -22 69 -25 50 -2 69 1
79 13 10 12 10 19 2 27 -12 12 -94 19 -130 11z"/>
<path d="M9660 8395 c-23 -27 5 -45 70 -45 39 0 62 5 70 15 23 27 -5 45 -70
45 -39 0 -62 -5 -70 -15z"/>
<path d="M9938 8399 c-10 -5 -18 -16 -18 -24 0 -19 34 -27 96 -23 38 2 50 7
52 22 2 10 -2 22 -10 27 -18 12 -99 11 -120 -2z"/>
<path d="M9662 8138 c-32 -32 -7 -48 73 -48 60 0 87 19 65 45 -15 18 -120 21
-138 3z"/>
<path d="M9933 8143 c-18 -7 -16 -40 3 -47 9 -3 35 -6 59 -6 56 0 75 8 75 30
0 10 -7 21 -16 24 -18 7 -103 7 -121 -1z"/>
<path d="M9927 7883 c-15 -14 -6 -41 16 -47 72 -19 154 6 126 40 -12 14 -129
20 -142 7z"/>
<path d="M9923 7614 c-9 -25 12 -36 71 -38 58 -1 83 12 73 38 -5 12 -22 16
-72 16 -50 0 -67 -4 -72 -16z"/>
<path d="M7362 9118 c-8 -8 -12 -45 -12 -100 0 -73 3 -90 16 -95 28 -11 44 25
44 100 0 90 -18 125 -48 95z"/>
<path d="M7527 9113 c-4 -3 -7 -46 -7 -95 0 -70 3 -90 15 -94 31 -12 45 15 45
91 0 41 -3 80 -6 89 -6 16 -35 22 -47 9z"/>
<path d="M1963 8233 c-18 -7 -16 -40 3 -47 9 -3 37 -6 64 -6 61 0 80 7 80 30
0 10 -7 21 -16 24 -18 7 -113 7 -131 -1z"/>
<path d="M1962 8021 c-8 -5 -12 -17 -10 -27 3 -16 14 -19 74 -22 56 -2 74 1
85 14 11 14 11 18 -6 30 -21 15 -122 19 -143 5z"/>
<path d="M1963 7813 c-18 -7 -16 -40 3 -47 33 -12 131 -6 144 9 23 28 -5 45
-74 44 -33 0 -67 -3 -73 -6z"/>
<path d="M593 7294 c-9 -25 9 -34 86 -39 57 -4 79 -2 98 10 20 13 22 19 12 31
-17 21 -187 20 -196 -2z"/>
<path d="M18264 7296 c-8 -21 3 -36 27 -36 15 0 20 6 17 22 -4 27 -35 37 -44
14z"/>
<path d="M3152 6961 c-8 -5 -12 -17 -10 -27 3 -18 17 -19 253 -19 236 0 250 1
253 19 2 10 -2 22 -10 27 -7 5 -116 9 -243 9 -126 0 -236 -4 -243 -9z"/>
<path d="M17070 6945 c-10 -12 -10 -18 0 -30 9 -11 34 -15 100 -15 66 0 91 4
100 15 10 12 10 18 0 30 -9 11 -34 15 -100 15 -66 0 -91 -4 -100 -15z"/>
<path d="M1543 6905 c-11 -30 12 -36 138 -33 116 3 124 4 124 23 0 19 -8 20
-128 23 -109 2 -128 0 -134 -13z"/>
<path d="M7822 6807 c-29 -34 -2 -37 299 -35 286 3 294 4 294 23 0 19 -8 20
-291 23 -229 2 -294 0 -302 -11z"/>
<path d="M12867 6813 c-4 -3 -7 -15 -7 -25 0 -18 18 -22 80 -19 43 3 64 -20
56 -62 -12 -63 -22 -67 -171 -67 -168 0 -165 2 -165 -123 0 -155 31 -220 125
-263 l52 -24 1014 2 c1006 3 1014 3 1014 23 0 19 -8 20 -182 25 -100 3 -185 8
-189 13 -4 4 0 29 9 55 19 54 22 118 6 159 -26 70 -125 133 -209 133 -40 0
-50 18 -50 90 0 38 -5 71 -12 78 -9 9 -176 12 -688 12 -372 0 -680 -3 -683 -7z
m1313 -63 c5 -8 10 -63 10 -122 0 -106 0 -108 -24 -114 -55 -13 -61 -6 -64 86
-3 102 -10 110 -95 110 -92 0 -97 -6 -97 -105 0 -89 -6 -101 -46 -91 -23 6
-24 10 -24 91 0 73 -3 86 -19 95 -29 15 -146 13 -159 -3 -6 -7 -12 -51 -14
-97 -3 -81 -4 -85 -27 -88 -33 -5 -41 12 -41 99 0 45 -5 80 -12 87 -14 14
-136 16 -158 2 -11 -7 -16 -34 -20 -97 -4 -74 -8 -88 -23 -91 -36 -7 -47 16
-47 97 0 47 -5 82 -12 89 -14 14 -136 16 -158 2 -11 -7 -16 -34 -20 -97 l-5
-88 -46 -3 c-66 -4 -74 10 -50 89 11 35 25 83 31 107 7 29 18 46 33 52 12 5
260 8 550 7 457 -2 529 -4 537 -17z m-925 -170 c0 -55 -3 -65 -19 -68 -28 -6
-39 12 -39 66 0 60 8 74 36 70 20 -3 22 -9 22 -68z m260 0 c0 -54 -3 -65 -18
-68 -31 -6 -47 17 -47 67 0 52 14 73 45 69 18 -3 20 -10 20 -68z m253 58 c17
-17 15 -103 -3 -118 -28 -23 -50 -8 -53 39 -2 25 -1 55 3 68 6 25 33 31 53 11z
m266 -4 c9 -23 7 -97 -3 -112 -4 -8 -19 -12 -32 -10 -21 3 -24 9 -27 57 -2 29
-1 60 2 67 7 19 52 18 60 -2z m-1099 -74 c15 -25 -17 -40 -83 -40 -54 0 -70
-4 -89 -22 l-23 -21 0 35 c0 19 2 37 4 39 2 2 45 2 94 -1 72 -4 88 -2 80 8 -7
8 -7 12 0 12 6 0 14 -5 17 -10z m1476 -39 c22 -21 39 -44 39 -51 0 -7 -9 -2
-20 11 l-20 24 16 -33 c10 -21 13 -43 9 -65 -12 -51 -24 -67 -68 -88 -40 -18
-77 -19 -775 -19 -790 0 -771 -1 -820 53 -13 14 -26 43 -29 66 -5 38 -4 40 17
36 13 -2 25 -7 29 -11 3 -4 -3 -4 -13 0 -16 5 -17 4 -6 -9 11 -14 102 -15 806
-13 870 3 819 -1 826 63 3 30 3 30 -52 33 -65 3 -80 8 -80 22 0 15 61 12 95
-5 l30 -15 -24 20 c-13 11 -18 20 -11 20 7 0 30 -17 51 -39z"/>
<path d="M9612 6751 c-8 -5 -12 -17 -10 -27 3 -17 14 -19 99 -22 77 -2 99 0
109 13 10 12 10 18 0 30 -9 11 -34 15 -99 15 -47 0 -92 -4 -99 -9z"/>
<path d="M15720 6745 c-7 -8 -10 -22 -6 -30 4 -12 24 -15 98 -15 103 0 130 9
112 37 -15 25 -184 32 -204 8z"/>
<path d="M10832 6711 c-8 -5 -12 -17 -10 -27 3 -18 19 -19 294 -22 259 -2 293
0 305 14 11 14 10 18 -6 30 -15 11 -75 14 -294 14 -152 0 -282 -4 -289 -9z"/>
<path d="M7012 6680 c-15 -6 -22 -17 -20 -27 3 -16 17 -18 104 -21 105 -3 133
7 114 38 -10 17 -164 25 -198 10z"/>
<path d="M3087 6383 c-13 -12 -7 -41 9 -47 9 -3 50 -6 93 -6 83 0 119 14 108
44 -5 13 -23 16 -105 16 -54 0 -102 -3 -105 -7z"/>
<path d="M8332 6329 c-15 -5 -22 -15 -20 -26 3 -17 23 -18 253 -18 247 0 250
0 253 21 2 15 -4 23 -20 28 -36 9 -440 6 -466 -5z"/>
<path d="M6204 6315 c-12 -30 15 -45 82 -45 70 0 105 20 83 46 -17 21 -157 20
-165 -1z"/>
<path d="M14934 6265 c-11 -29 11 -36 97 -33 76 3 84 5 84 23 0 18 -8 20 -88
23 -73 2 -88 0 -93 -13z"/>
</g>
</svg>
