<?xml version="1.0" encoding="UTF-8"?>
<svg fill="none" viewBox="0 0 116 32" xmlns="http://www.w3.org/2000/svg">
<path d="m31.228 0c-0.3313 0-0.6 0.26863-0.6 0.6v8.6256h-4.4286c-0.3313 0-0.6 0.26863-0.6 0.6v4.5143c0 0.3313 0.2687 0.6 0.6 0.6h4.4286v16.46c0 0.3314 0.2687 0.6 0.6 0.6h4.5143c0.3314 0 0.6-0.2686 0.6-0.6v-16.46h4.4285c0.3314 0 0.6-0.2687 0.6-0.6v-4.5143c0-0.33137-0.2686-0.6-0.6-0.6h-4.4285v-8.6256c0-0.33137-0.2686-0.6-0.6-0.6h-4.5143zm-7.9558 28.691v2.9414c0 0.1714-0.139 0.3104-0.3103 0.3104h-4.8964c-0.1335 0-0.2521-0.0855-0.2944-0.2122l-0.3414-1.2529c-1.7945 1.055-3.7894 1.5221-5.7939 1.5221-6.4213 0-11.636-5.3463-11.636-11.779 0-6.4329 5.215-11.779 11.636-11.779 6.4214 0 11.636 5.3463 11.636 11.779v8.4661 0.0042zm-8.8127-3.5058 0.0339-0.0206c0.9425-0.5742 1.9344-0.5451 2.7451-0.2001v-4.6738c0-3.1591-2.577-5.7244-5.6027-5.7244-3.0256 0-5.6026 2.5653-5.6026 5.7244s2.577 5.7243 5.6026 5.7243c1.0156 0 2.0156-0.2988 2.7906-0.808l0.0331-0.0218zm51.777-0.4506c0.6108-1.4773 0.9162-3.0682 0.9162-4.7727 0-1.8182-0.3054-3.4659-0.9162-4.9432-0.6108-1.4915-1.4418-2.7628-2.4929-3.8139-1.0511-1.0653-2.2869-1.8821-3.7074-2.4503-1.4062-0.58239-2.919-0.87358-4.5383-0.87358-1.6051 0-3.1179 0.3054-4.5384 0.91619-1.4062 0.61079-2.642 1.456-3.7073 2.5356-1.0512 1.0653-1.8821 2.3366-2.4929 3.8139-0.6108 1.4772-0.9162 3.0823-0.9162 4.8153 0 1.7045 0.3054 3.2954 0.9162 4.7727 0.6108 1.4631 1.4417 2.7344 2.4929 3.8139 1.0653 1.0653 2.3011 1.9105 3.7073 2.5355 1.4205 0.6108 2.9333 0.9162 4.5384 0.9162 1.6193 0 3.1321-0.3054 4.5383-0.9162 1.4205-0.625 2.6563-1.4702 3.7074-2.5355 1.0511-1.0795 1.8821-2.3508 2.4929-3.8139zm-5.4119-7.3082c0.3125 0.7528 0.4687 1.598 0.4687 2.5355 0 0.9233-0.1562 1.7684-0.4687 2.5355-0.2983 0.767-0.7103 1.4204-1.2358 1.9602-0.5256 0.5398-1.1435 0.9588-1.8537 1.2571-0.696 0.2983-1.4418 0.4475-2.2372 0.4475-0.7955 0-1.5483-0.1563-2.2585-0.4688-0.696-0.3267-1.3068-0.767-1.8324-1.321-0.5114-0.554-0.9162-1.2074-1.2145-1.9602-0.2983-0.7529-0.4474-1.5696-0.4474-2.4503 0-0.9375 0.1491-1.7827 0.4474-2.5355 0.2983-0.7671 0.7031-1.4205 1.2145-1.9602 0.5256-0.554 1.1364-0.973 1.8324-1.2571 0.7102-0.2983 1.463-0.4475 2.2585-0.4475 0.7954 0 1.5412 0.1492 2.2372 0.4475 0.7102 0.2841 1.3281 0.7031 1.8537 1.2571 0.5255 0.5397 0.9375 1.1931 1.2358 1.9602zm14.431 13.974c0 0.3313-0.2686 0.6-0.6 0.6h-4.6167c-0.3314 0-0.6-0.2687-0.6-0.6v-21.22c0-0.55224 0.4477-0.99996 1-0.99996h4.0166c0.3914 0 0.6056 0.36999 0.5217 0.68337 0.3107-0.15809 0.6307-0.30066 0.9602-0.42769 1.1932-0.46875 2.4361-0.70312 3.7287-0.70312 1.392 0 2.706 0.26988 3.9417 0.80965 1.2358 0.52555 2.3154 1.2572 3.2387 2.1946 0.9233 0.9233 1.6477 2.01 2.1733 3.26 0.5397 1.2358 0.8096 2.5568 0.8096 3.963v12.44c0 0.3313-0.2686 0.6-0.6 0.6h-4.6167c-0.3314 0-0.6-0.2687-0.6-0.6v-12.44c0-0.5965-0.1137-1.1576-0.3409-1.6832-0.2273-0.5398-0.5398-1.0085-0.9375-1.4062-0.3978-0.3978-0.8594-0.7103-1.385-0.9375-0.5255-0.2273-1.0866-0.3409-1.6832-0.3409-0.6108 0-1.1861 0.1136-1.7259 0.3409-0.5397 0.2272-1.0085 0.5397-1.4062 0.9375-0.3977 0.3977-0.7102 0.8664-0.9375 1.4062-0.2273 0.5256-0.3409 1.0867-0.3409 1.6832v12.44zm39.253-6.6659c0.611-1.4773 0.916-3.0682 0.916-4.7727 0-1.8182-0.305-3.4659-0.916-4.9432-0.611-1.4915-1.442-2.7628-2.493-3.8139-1.051-1.0653-2.287-1.8821-3.707-2.4503-1.406-0.58239-2.919-0.87358-4.538-0.87358-1.606 0-3.118 0.3054-4.5388 0.91619-1.4063 0.61079-2.6421 1.456-3.7074 2.5356-1.0511 1.0653-1.8821 2.3366-2.4929 3.8139-0.6108 1.4772-0.9162 3.0823-0.9162 4.8153 0 1.7045 0.3054 3.2954 0.9162 4.7727 0.6108 1.4631 1.4418 2.7344 2.4929 3.8139 1.0653 1.0653 2.3011 1.9105 3.7074 2.5355 1.4208 0.6108 2.9328 0.9162 4.5388 0.9162 1.619 0 3.132-0.3054 4.538-0.9162 1.42-0.625 2.656-1.4702 3.707-2.5355 1.051-1.0795 1.882-2.3508 2.493-3.8139zm-5.412-7.3082c0.313 0.7528 0.469 1.598 0.469 2.5355 0 0.9233-0.156 1.7684-0.469 2.5355-0.298 0.767-0.71 1.4204-1.236 1.9602-0.525 0.5398-1.143 0.9588-1.853 1.2571-0.696 0.2983-1.442 0.4475-2.237 0.4475-0.796 0-1.549-0.1563-2.259-0.4688-0.696-0.3267-1.307-0.767-1.8324-1.321-0.5113-0.554-0.9162-1.2074-1.2145-1.9602-0.2983-0.7529-0.4474-1.5696-0.4474-2.4503 0-0.9375 0.1491-1.7827 0.4474-2.5355 0.2983-0.7671 0.7032-1.4205 1.2145-1.9602 0.5254-0.554 1.1364-0.973 1.8324-1.2571 0.71-0.2983 1.463-0.4475 2.259-0.4475 0.795 0 1.541 0.1492 2.237 0.4475 0.71 0.2841 1.328 0.7031 1.853 1.2571 0.526 0.5397 0.938 1.1931 1.236 1.9602z" clipRule="evenodd" fill="#485AFF" fillRule="evenodd"/>
</svg>
