<svg width="329" height="315" viewBox="0 0 329 315" fill="none" xmlns="http://www.w3.org/2000/svg">
<path d="M219.524 157.5H260.529C266.298 157.501 271.92 155.75 276.59 152.497C281.259 149.243 284.737 144.655 286.526 139.387L300.959 95.6419C301.571 93.6822 301.697 91.6124 301.327 89.5976C300.958 87.5829 300.103 85.679 298.83 84.038C297.558 82.397 295.904 81.0642 294.001 80.1461C292.097 79.2279 289.996 78.7499 287.865 78.75H41.836C39.7056 78.7499 37.6046 79.2279 35.7008 80.1461C33.797 81.0642 32.143 82.397 30.8709 84.038C29.5988 85.679 28.7438 87.5829 28.3741 89.5976C28.0045 91.6124 28.1304 93.6822 28.7418 95.6419L43.1755 139.401C44.9664 144.665 48.4454 149.251 53.1149 152.502C57.7844 155.753 63.405 157.502 69.1726 157.5H110.178" stroke="#DD344C" stroke-width="8" stroke-linecap="round" stroke-linejoin="round"/>
<path d="M246.86 78.75V39.375C246.86 35.894 245.42 32.5556 242.857 30.0942C240.294 27.6328 236.817 26.25 233.192 26.25H192.187" stroke="#DD344C" stroke-width="8" stroke-linecap="round" stroke-linejoin="round"/>
<path d="M205.856 131.25H123.846C116.297 131.25 110.177 137.126 110.177 144.375V275.625C110.177 282.874 116.297 288.75 123.846 288.75H205.856C213.404 288.75 219.524 282.874 219.524 275.625V144.375C219.524 137.126 213.404 131.25 205.856 131.25Z" stroke="#DD344C" stroke-width="8" stroke-linecap="round" stroke-linejoin="round"/>
</svg>
