<svg width="169" height="169" viewBox="0 0 169 169" fill="none" xmlns="http://www.w3.org/2000/svg">
<rect width="169" height="169" fill="#01A88D"/>
<path d="M80.9167 67.4041L56.4412 100.164C55.8653 100.935 55.5899 101.882 55.6648 102.834C55.7397 103.786 56.1599 104.681 56.8495 105.356L60.1856 108.628C60.8853 109.313 61.8148 109.725 62.8016 109.789C63.7884 109.853 64.7654 109.564 65.5511 108.976L97.6175 85.0001" stroke="white" stroke-width="4" stroke-linecap="round" stroke-linejoin="round"/>
<path d="M103.375 121.696C99.2917 119 94.6857 117 89.0834 117C80.6799 117 73.0441 126.424 64.5834 125C56.1227 123.576 53.2521 111.524 58.4584 107" stroke="white" stroke-width="4" stroke-linecap="round" stroke-linejoin="round"/>
<path d="M101.333 85C112.609 85 121.75 76.0457 121.75 65C121.75 53.9543 112.609 45 101.333 45C90.0575 45 80.9166 53.9543 80.9166 65C80.9166 76.0457 90.0575 85 101.333 85Z" stroke="white" stroke-width="4" stroke-linecap="round" stroke-linejoin="round"/>
</svg>
