<svg width="171" height="169" viewBox="0 0 171 169" fill="none" xmlns="http://www.w3.org/2000/svg">
<rect width="171" height="169" fill="#8C4FFF"/>
<path d="M100 120.5V112.5C100 108.257 98.3143 104.187 95.3137 101.186C92.3131 98.1857 88.2435 96.5 84 96.5H60C55.7565 96.5 51.6869 98.1857 48.6863 101.186C45.6857 104.187 44 108.257 44 112.5V120.5" stroke="white" stroke-width="4" stroke-linecap="round" stroke-linejoin="round"/>
<path d="M100 49.012C103.431 49.9014 106.47 51.905 108.639 54.7082C110.808 57.5114 111.985 60.9555 111.985 64.5C111.985 68.0444 110.808 71.4885 108.639 74.2917C106.47 77.0949 103.431 79.0985 100 79.988" stroke="white" stroke-width="4" stroke-linecap="round" stroke-linejoin="round"/>
<path d="M124 120.5V112.5C123.997 108.955 122.817 105.511 120.645 102.709C118.474 99.9074 115.433 97.9063 112 97.02" stroke="white" stroke-width="4" stroke-linecap="round" stroke-linejoin="round"/>
<path d="M72 80.5C80.8366 80.5 88 73.3366 88 64.5C88 55.6634 80.8366 48.5 72 48.5C63.1634 48.5 56 55.6634 56 64.5C56 73.3366 63.1634 80.5 72 80.5Z" stroke="white" stroke-width="4" stroke-linecap="round" stroke-linejoin="round"/>
</svg>
