<?xml version="1.0" encoding="UTF-8" standalone="yes"?>
<svg xmlns="http://www.w3.org/2000/svg" width="94.139" height="19.159" viewBox="0 0 94.139 19.159" fill="rgb(26, 26, 26)">
  <path d="M5.11 19.16L5.11 19.16Q3.17 19.16 2.06 18.35Q0.94 17.55 0.47 16.09Q0 14.63 0 12.72L0 12.72L0 6.46Q0 4.48 0.51 3.04Q1.01 1.59 2.24 0.79Q3.47 0 5.59 0L5.59 0Q7.66 0 8.84 0.69Q10.03 1.38 10.53 2.60Q11.04 3.82 11.04 5.45L11.04 5.45L11.04 6.65L7.01 6.65L7.01 5.13Q7.01 4.53 6.93 4.02Q6.85 3.52 6.57 3.21Q6.28 2.90 5.63 2.90L5.63 2.90Q4.97 2.90 4.67 3.25Q4.37 3.61 4.29 4.14Q4.21 4.67 4.21 5.24L4.21 5.24L4.21 13.87Q4.21 14.49 4.34 15.03Q4.46 15.57 4.80 15.90Q5.13 16.24 5.75 16.24L5.75 16.24Q6.39 16.24 6.74 15.89Q7.08 15.55 7.22 15.00Q7.36 14.44 7.36 13.82L7.36 13.82L7.36 11.64L5.68 11.64L5.68 9.22L11.06 9.22L11.06 18.88L8.35 18.88L8.12 17.34Q7.75 18.12 7.04 18.64Q6.33 19.16 5.11 19.16ZM17.76 18.88L13.64 18.88L13.64 0.25L18.77 0.25Q20.65 0.25 22.03 0.67Q23.41 1.08 24.18 2.15Q24.95 3.22 24.95 5.17L24.95 5.17Q24.95 6.32 24.77 7.22Q24.59 8.12 24.09 8.77Q23.60 9.43 22.68 9.87L22.68 9.87L25.23 18.88L20.98 18.88L18.93 10.53L17.76 10.53L17.76 18.88ZM17.76 3.01L17.76 8.16L18.91 8.16Q19.78 8.16 20.26 7.85Q20.75 7.54 20.94 6.96Q21.14 6.37 21.14 5.54L21.14 5.54Q21.14 4.35 20.70 3.68Q20.26 3.01 19.09 3.01L19.09 3.01L17.76 3.01ZM35.86 18.88L27.44 18.88L27.44 0.25L35.81 0.25L35.81 3.06L31.56 3.06L31.56 7.68L34.80 7.68L34.80 10.53L31.56 10.53L31.56 16.10L35.86 16.10L35.86 18.88ZM44.02 18.88L40.07 18.88L40.07 11.27L36.52 0.25L40.41 0.25L42.18 6.14L43.77 0.25L47.49 0.25L44.02 11.27L44.02 18.88ZM53.82 18.88L49.06 18.88L49.06 0.25L53.77 0.25Q56.21 0.25 57.57 0.86Q58.93 1.47 59.48 2.77Q60.03 4.07 60.03 6.14L60.03 6.14L60.03 12.90Q60.03 15.00 59.48 16.32Q58.93 17.64 57.58 18.26Q56.23 18.88 53.82 18.88L53.82 18.88ZM53.18 3.13L53.18 16.03L53.82 16.03Q54.76 16.03 55.18 15.75Q55.59 15.48 55.69 14.93Q55.80 14.38 55.80 13.55L55.80 13.55L55.80 5.43Q55.80 4.60 55.67 4.09Q55.54 3.59 55.13 3.36Q54.72 3.13 53.80 3.13L53.80 3.13L53.18 3.13ZM65.25 18.88L61.36 18.88L64.88 0.25L69.57 0.25L73.05 18.88L69.25 18.88L68.63 14.95L65.89 14.95L65.25 18.88ZM67.25 5.22L66.26 12.49L68.24 12.49L67.25 5.22ZM79.76 18.88L75.62 18.88L75.62 3.31L72.82 3.31L72.82 0.25L82.55 0.25L82.55 3.31L79.76 3.31L79.76 18.88ZM86.34 18.88L82.45 18.88L85.97 0.25L90.67 0.25L94.14 18.88L90.34 18.88L89.72 14.95L86.99 14.95L86.34 18.88ZM88.34 5.22L87.35 12.49L89.33 12.49L88.34 5.22Z"/>
</svg>