<svg width="266" height="204" viewBox="0 0 266 204" fill="none" xmlns="http://www.w3.org/2000/svg">
<path d="M186.007 37.9013H144.798L136.719 51.8959L159.694 64.5916C161.531 62.8458 163.996 61.7564 166.726 61.7564C172.369 61.7564 176.943 66.3305 176.943 71.973C176.943 77.6155 172.369 82.1896 166.726 82.1896C164.177 82.1896 161.88 81.2259 160.092 79.6826L135.992 94.0263L144.798 109.285H186.007L206.615 73.5931L186.007 37.9013Z" fill="#C9CBCD"/>
<path d="M156.551 71.554L132.913 58.4951L124.191 73.6001L132.18 87.4411L156.6 72.9087C156.572 72.6015 156.51 72.3012 156.51 71.98C156.51 71.8333 156.544 71.7006 156.551 71.561V71.554Z" fill="#C9CBCD"/>
<path d="M104.4 75.8557V102.078C104.993 102.316 105.559 102.616 106.097 102.958L128.981 89.3405L121.195 75.8557H104.393H104.4Z" fill="#C9CBCD"/>
<path d="M110.811 111.548C110.811 117.19 106.236 121.764 100.594 121.764C94.9514 121.764 90.3773 117.19 90.3773 111.548C90.3773 107.253 93.031 103.594 96.788 102.078V75.8557H79.9931L59.3853 111.548L79.9931 147.239H121.202L141.81 111.548L132.794 95.9328L110.517 109.187C110.699 109.948 110.818 110.73 110.818 111.548H110.811Z" fill="#C9CBCD"/>
<path d="M90.3704 36.2812C90.3704 30.6386 94.9444 26.0646 100.587 26.0646C106.229 26.0646 110.804 30.6386 110.804 36.2812C110.804 36.7002 110.727 37.0982 110.678 37.5102L133.73 50.2478L141.796 36.2812L121.188 0.589355H79.9791L59.3713 36.2812L79.9791 71.973H96.7741V45.7506C93.017 44.2422 90.3634 40.5759 90.3634 36.2812H90.3704Z" fill="#C9CBCD"/>
<path d="M129.931 56.8471L107.005 44.1793C106.216 44.8218 105.357 45.3665 104.393 45.7506V71.973H121.195L129.931 56.8471Z" fill="#C9CBCD"/>
<path d="M5.70434 203.895L0.32019 198.511V173.517L5.70434 168.133H25.6976L31.0818 173.517V180.117L22.2479 180.068V176.723L20.502 175.026H11.1374L9.39154 176.723V195.257L11.1374 197.002H18.7562L23.4141 192.875V191.611H16.8637V184.67H31.6125V203.888H23.9448V200.683L20.3554 203.888H5.70434V203.895Z" fill="#606161"/>
<path d="M37.8486 203.895V168.133H62.2065L67.6395 173.517V186.325L63.5613 190.403L68.9943 203.895H59.8741L55.1673 191.716H46.92V203.895H37.8486ZM46.927 184.83H57.1156L58.8126 183.133V176.73L57.1156 175.033H46.927V184.837V184.83Z" fill="#606161"/>
<path d="M73.8547 203.895V168.133H101.027V175.508H82.926V182.107H99.2321V188.951H82.926V196.521H101.027V203.895H73.8547Z" fill="#606161"/>
<path d="M115.392 203.895V189.775L103.457 168.133H113.89L119.037 179.928H120.783L125.929 168.133H136.363L124.428 189.775V203.895H115.392Z" fill="#606161"/>
<path d="M139.749 203.895V168.133H163.088L170.511 175.557V196.472L163.088 203.895H139.749ZM148.828 197.009H159.163L161.733 194.44V177.603L159.163 175.033H148.828V197.016V197.009Z" fill="#606161"/>
<path d="M214.387 203.895V175.508H204.394V168.133H233.459V175.508H223.466V203.895H214.387Z" fill="#606161"/>
<path d="M229.967 203.895L240.449 168.133H255.198L265.68 203.895H256.071L254.276 196.765H241.371L239.576 203.895H229.967ZM243.166 189.775H252.481L248.696 174.977H246.951L243.166 189.775Z" fill="#606161"/>
<path d="M172.173 203.895L182.655 168.133H197.404L207.886 203.895H198.277L196.482 196.765H183.577L181.782 203.895H172.173ZM185.372 189.775H194.687L190.902 174.977H189.156L185.372 189.775Z" fill="#606161"/>
</svg>
