<svg width="431" height="49" viewBox="0 0 431 49" fill="none" xmlns="http://www.w3.org/2000/svg">
<path d="M67.4804 25.4132C66.0793 25.4132 64.7092 25.2707 63.3713 24.9874C62.0326 24.7042 61.0051 24.3779 60.2898 24.0088C59.8534 23.7822 59.581 23.5556 59.4728 23.3278C59.363 23.1012 59.3089 22.8745 59.3089 22.6474V21.413C59.3089 20.9025 59.5112 20.6478 59.9162 20.6478C60.0714 20.6478 60.2344 20.6764 60.4062 20.7325C60.577 20.7902 60.8033 20.875 61.0836 20.9883C61.986 21.3569 62.9659 21.6407 64.0252 21.8387C65.0828 22.0373 66.1412 22.1369 67.2001 22.1369C68.8806 22.1369 70.1801 21.8679 71.0986 21.3283C72.0166 20.7902 72.4761 20.0234 72.4761 19.0305C72.4761 18.3496 72.2346 17.7824 71.7525 17.3286C71.2694 16.8753 70.3745 16.4495 69.0672 16.0518L65.1918 14.9456C63.2314 14.3785 61.8068 13.5561 60.9197 12.4779C60.033 11.4003 59.5888 10.2226 59.5888 8.94636C59.5888 7.92538 59.8303 7.02461 60.3129 6.24459C60.7954 5.46456 61.4341 4.79733 62.227 4.24448C63.0208 3.69112 63.9472 3.27275 65.0052 2.98893C66.0636 2.70615 67.184 2.56421 68.3671 2.56421C68.9586 2.56421 69.5576 2.59972 70.1648 2.67013C70.7721 2.74162 71.3475 2.83376 71.8924 2.94656C72.4364 3.06042 72.9425 3.18803 73.4099 3.32994C73.8767 3.47188 74.2499 3.61379 74.5306 3.75518C74.9038 3.95427 75.1675 4.15286 75.3244 4.35092C75.4801 4.55002 75.5572 4.8185 75.5572 5.15954V6.30813C75.5572 6.81916 75.3554 7.07386 74.95 7.07386C74.7325 7.07386 74.3907 6.97537 73.9234 6.77627C72.3981 6.15245 70.6862 5.84 68.7877 5.84C67.2616 5.84 66.0793 6.06773 65.2388 6.52101C64.3979 6.97537 63.9786 7.69872 63.9786 8.6911C63.9786 9.37156 64.2423 9.94614 64.7715 10.4143C65.3008 10.8824 66.2816 11.3288 67.7132 11.7545L71.4957 12.8608C73.4247 13.4285 74.8031 14.2085 75.6278 15.2014C76.4518 16.1943 76.865 17.3286 76.865 18.6053C76.865 19.6549 76.6314 20.598 76.1645 21.4347C75.698 22.2714 75.0511 22.9879 74.2268 23.5831C73.4016 24.1788 72.4133 24.6332 71.262 24.9451C70.1099 25.257 68.8492 25.4132 67.4804 25.4132ZM33.2087 24.7746C32.7419 24.7746 32.3983 24.6967 32.1812 24.541C31.9633 24.3854 31.7767 24.066 31.6211 23.5831L25.3642 4.77616C25.2082 4.29425 25.1314 3.96806 25.1314 3.79807C25.1314 3.40091 25.3485 3.20233 25.7845 3.20233H28.3996C28.897 3.20233 29.247 3.28069 29.4502 3.43586C29.6524 3.59206 29.8307 3.91138 29.9868 4.39381L34.4694 20.4773L38.6247 4.39381C38.7485 3.91138 38.9202 3.59206 39.1386 3.43586C39.3557 3.28069 39.7145 3.20233 40.2123 3.20233H42.3601C42.8575 3.20233 43.2163 3.28069 43.4338 3.43586C43.6513 3.59206 43.8226 3.91138 43.9478 4.39381L48.1497 20.6902L52.7722 4.39381C52.9274 3.91138 53.1061 3.59206 53.3093 3.43586C53.5111 3.28069 53.8612 3.20233 54.3599 3.20233H56.8346C57.2705 3.20233 57.4885 3.40091 57.4885 3.79807C57.4885 3.91138 57.4719 4.03955 57.4419 4.18042C57.4105 4.3234 57.3477 4.52142 57.2548 4.77616L50.811 23.5831C50.6554 24.066 50.4688 24.3854 50.2513 24.541C50.0329 24.6967 49.6907 24.7746 49.2242 24.7746H46.936C46.4378 24.7746 46.0799 24.6899 45.8619 24.5199C45.644 24.3493 45.4726 24.0237 45.348 23.5407L41.1927 7.883L37.0837 23.5407C36.9594 24.0237 36.7881 24.3493 36.5706 24.5199C36.3522 24.6899 35.9943 24.7746 35.4965 24.7746H33.2087ZM11.7773 22.1369C12.6487 22.1369 13.5672 21.9876 14.5323 21.6899C15.4966 21.3918 16.3371 20.875 17.0537 20.1368C17.4892 19.6835 17.7926 19.1656 17.9639 18.5841C18.1348 18.0027 18.2203 17.3005 18.2203 16.4776V15.4561C17.4421 15.2861 16.6252 15.1521 15.7695 15.0526C14.9133 14.953 14.0807 14.9032 13.2712 14.9032C11.497 14.9032 10.1739 15.23 9.30295 15.8818C8.43066 16.5348 7.99561 17.471 7.99561 18.6901C7.99561 19.8249 8.32211 20.6833 8.97557 21.2642C9.62946 21.8462 10.5632 22.1369 11.7773 22.1369ZM22.61 18.4348C22.61 19.343 22.7103 20.0663 22.9134 20.6049C23.1153 21.144 23.403 21.726 23.7774 22.3498C23.9012 22.5484 23.964 22.7326 23.964 22.9026C23.964 23.1578 23.7923 23.3993 23.4501 23.626L21.7691 24.647C21.5198 24.7889 21.2861 24.8598 21.069 24.8598C20.7887 24.8598 20.5237 24.7465 20.2752 24.5199C19.9016 24.1788 19.5817 23.8034 19.3179 23.3919C19.0529 22.981 18.7813 22.506 18.501 21.9664C16.4155 24.2079 13.8004 25.3279 10.6569 25.3279C8.4154 25.3279 6.64074 24.7465 5.33384 23.5831C4.02649 22.4207 3.37305 20.8601 3.37305 18.9029C3.37305 16.8324 4.18213 15.1659 5.80072 13.9035C7.41888 12.6416 9.59807 12.0098 12.3374 12.0098C13.2398 12.0098 14.1818 12.0738 15.1622 12.2015C16.1431 12.3291 17.1623 12.5065 18.2203 12.7331V10.9465C18.2203 9.10256 17.8 7.80464 16.9604 7.05269C16.1195 6.30126 14.6723 5.92527 12.6173 5.92527C11.6835 5.92527 10.7267 6.03171 9.74629 6.24459C8.76545 6.45695 7.80815 6.73389 6.8744 7.07386C6.43891 7.24385 6.12766 7.3508 5.94065 7.39318C5.75407 7.43607 5.61414 7.45724 5.52128 7.45724C5.14682 7.45724 4.96025 7.20147 4.96025 6.69151V5.50003C4.96025 5.10287 5.02259 4.8185 5.14683 4.64851C5.27107 4.47853 5.52129 4.30854 5.894 4.13804C6.82819 3.7128 7.94853 3.34423 9.25587 3.03183C10.5632 2.7199 11.9481 2.56421 13.4111 2.56421C16.5864 2.56421 18.9129 3.2235 20.392 4.54263C21.8703 5.86121 22.61 7.85496 22.61 10.5207V18.4348Z" fill="#333E48"/>
<path fill-rule="evenodd" clip-rule="evenodd" d="M72.5266 37.3869C63.7419 43.2946 51.0067 46.4358 40.0397 46.4358C24.6698 46.4358 10.8287 41.2592 0.355096 32.64C-0.467061 31.9632 0.266168 31.0398 1.25529 31.5637C12.5549 37.5552 26.5299 41.1647 40.9629 41.1647C50.6994 41.1647 61.4014 39.323 71.2503 35.5166C72.7342 34.9427 73.9796 36.4078 72.5266 37.3869Z" fill="#FF9900"/>
<path fill-rule="evenodd" clip-rule="evenodd" d="M76.1819 33.5833C75.0581 32.2723 68.7555 32.9621 65.9233 33.2715C65.0649 33.3652 64.9324 32.6821 65.7053 32.1877C70.7342 28.9691 78.9736 29.8976 79.9309 30.9759C80.8952 32.0626 79.6776 39.5908 74.9653 43.1831C74.2403 43.7355 73.5511 43.4404 73.872 42.7113C74.933 40.2981 77.3071 34.8955 76.1819 33.5833Z" fill="#FF9900"/>
<path d="M107.217 26.7405C102.65 26.7405 99.1785 25.64 96.8026 23.4378C94.4257 21.2365 93.2375 18.0181 93.2375 13.7838C93.2375 9.62227 94.479 6.39235 96.9618 4.09317C99.4442 1.79487 102.902 0.645569 107.336 0.645569C109.46 0.645569 111.452 0.899044 113.311 1.40715C113.735 1.52898 114.02 1.69209 114.167 1.89764C114.313 2.1032 114.386 2.43606 114.386 2.89567V5.94429C114.386 6.59761 114.107 6.92441 113.549 6.92441C113.416 6.92441 113.085 6.86408 112.554 6.74283C111.253 6.47636 109.951 6.34356 108.651 6.34356C106.208 6.34356 104.363 6.93019 103.115 8.10374C101.867 9.27758 101.243 11.0135 101.243 13.3118V14.1103C101.243 16.3604 101.846 18.0788 103.055 19.2641C104.263 20.4495 106.048 21.0425 108.412 21.0425C110.058 21.0425 111.598 20.8855 113.032 20.5708C113.456 20.4743 113.761 20.4253 113.948 20.4253C114.505 20.4253 114.784 20.7518 114.784 21.4054V24.454C114.784 24.9139 114.71 25.2471 114.565 25.452C114.419 25.6576 114.133 25.8213 113.709 25.9422C111.903 26.474 109.739 26.7405 107.217 26.7405Z" fill="#333E48"/>
<path d="M130.754 21.3326C132.771 21.3326 134.292 20.6917 135.314 19.4093C136.336 18.1269 136.848 16.2397 136.848 13.7474C136.848 11.2069 136.329 9.28934 135.294 7.99483C134.259 6.70032 132.745 6.05335 130.754 6.05335C128.762 6.05335 127.255 6.69454 126.234 7.97693C125.211 9.25932 124.7 11.1468 124.7 13.6388C124.7 16.1554 125.211 18.0666 126.234 19.3726C127.255 20.6795 128.762 21.3326 130.754 21.3326ZM130.754 26.8856C127.859 26.8856 125.364 26.3351 123.266 25.2343C121.169 24.1335 119.576 22.5913 118.487 20.6068C117.398 18.6232 116.854 16.3006 116.854 13.6388C116.854 10.9046 117.425 8.55144 118.567 6.57964C119.709 4.60756 121.321 3.10144 123.406 2.06098C125.49 1.02052 127.939 0.5 130.754 0.5C133.648 0.5 136.143 1.04477 138.241 2.13315C140.338 3.22211 141.938 4.75884 143.04 6.74276C144.142 8.72696 144.693 11.0614 144.693 13.7474C144.693 16.4819 144.122 18.8405 142.98 20.8245C141.839 22.809 140.219 24.3151 138.122 25.3431C136.024 26.3715 133.568 26.8856 130.754 26.8856Z" fill="#333E48"/>
<path d="M150.985 26.2687C150.561 26.2687 150.255 26.1841 150.069 26.0147C149.883 25.8458 149.791 25.5675 149.791 25.1798V2.20563C149.791 1.79511 149.883 1.51103 150.069 1.35283C150.255 1.19578 150.561 1.11725 150.985 1.11725H156.959C157.331 1.11725 157.617 1.17181 157.816 1.28036C158.015 1.3892 158.207 1.62535 158.393 1.98824L164.646 14.7636L170.978 1.98824C171.164 1.62535 171.357 1.3892 171.556 1.28036C171.755 1.17181 172.04 1.11725 172.412 1.11725H178.107C178.558 1.11725 178.87 1.19578 179.043 1.35283C179.215 1.51103 179.302 1.79511 179.302 2.20563V25.1798C179.302 25.5675 179.215 25.8458 179.043 26.0147C178.87 26.1841 178.558 26.2687 178.107 26.2687H173.886C173.461 26.2687 173.155 26.1841 172.97 26.0147C172.784 25.8458 172.691 25.5675 172.691 25.1798V10.7354L168.35 19.6634C168.164 20.026 167.971 20.2624 167.772 20.3712C167.573 20.4798 167.288 20.5344 166.916 20.5344H162.177C161.804 20.5344 161.519 20.4798 161.321 20.3712C161.121 20.2624 160.928 20.026 160.743 19.6634L156.402 10.7354V25.1798C156.402 25.5675 156.315 25.8458 156.143 26.0147C155.97 26.1841 155.658 26.2687 155.207 26.2687H150.985Z" fill="#333E48"/>
<path d="M186.391 26.2687C185.966 26.2687 185.66 26.1841 185.475 26.0147C185.289 25.8458 185.196 25.5675 185.196 25.1798V2.20563C185.196 1.79511 185.289 1.51103 185.475 1.35283C185.66 1.19578 185.966 1.11725 186.391 1.11725H192.365C192.736 1.11725 193.022 1.17181 193.221 1.28036C193.421 1.3892 193.613 1.62535 193.799 1.98824L200.051 14.7636L206.384 1.98824C206.569 1.62535 206.762 1.3892 206.961 1.28036C207.16 1.17181 207.445 1.11725 207.818 1.11725H213.513C213.964 1.11725 214.276 1.19578 214.449 1.35283C214.621 1.51103 214.708 1.79511 214.708 2.20563V25.1798C214.708 25.5675 214.621 25.8458 214.449 26.0147C214.276 26.1841 213.964 26.2687 213.513 26.2687H209.291C208.866 26.2687 208.56 26.1841 208.375 26.0147C208.189 25.8458 208.096 25.5675 208.096 25.1798V10.7354L203.755 19.6634C203.569 20.026 203.377 20.2624 203.177 20.3712C202.979 20.4798 202.693 20.5344 202.322 20.5344H197.582C197.21 20.5344 196.925 20.4798 196.726 20.3712C196.527 20.2624 196.334 20.026 196.148 19.6634L191.807 10.7354V25.1798C191.807 25.5675 191.721 25.8458 191.548 26.0147C191.375 26.1841 191.064 26.2687 190.612 26.2687H186.391Z" fill="#333E48"/>
<path d="M232.51 26.8857C228.686 26.8857 225.719 26.0326 223.608 24.3272C221.498 22.6213 220.442 20.1954 220.442 17.0498V2.20592C220.442 1.79482 220.535 1.51074 220.721 1.35283C220.906 1.19578 221.212 1.11725 221.637 1.11725H226.934C227.385 1.11725 227.696 1.19578 227.87 1.35283C228.042 1.51074 228.129 1.79482 228.129 2.20592V17.268C228.129 18.5989 228.5 19.6088 229.244 20.2988C229.987 20.9882 231.075 21.3326 232.51 21.3326C235.457 21.3326 236.93 19.978 236.93 17.268V2.20592C236.93 1.79482 237.023 1.51074 237.209 1.35283C237.394 1.19578 237.7 1.11725 238.125 1.11725H243.422C243.873 1.11725 244.185 1.19578 244.358 1.35283C244.531 1.51074 244.617 1.79482 244.617 2.20592V17.0865C244.617 20.2075 243.554 22.6213 241.431 24.3272C239.306 26.0326 236.333 26.8857 232.51 26.8857Z" fill="#333E48"/>
<path d="M251.546 26.2687C251.121 26.2687 250.816 26.1841 250.63 26.0147C250.444 25.8458 250.351 25.5675 250.351 25.1798V2.20563C250.351 1.79511 250.444 1.51103 250.63 1.35283C250.816 1.19578 251.121 1.11725 251.546 1.11725H257.162C257.613 1.11725 257.951 1.17759 258.177 1.29884C258.403 1.4198 258.609 1.62535 258.795 1.91549L267.994 17.014V2.20563C267.994 1.79511 268.087 1.51103 268.274 1.35283C268.459 1.19578 268.765 1.11725 269.19 1.11725H273.411C273.862 1.11725 274.174 1.19578 274.347 1.35283C274.519 1.51103 274.606 1.79511 274.606 2.20563V25.1798C274.606 25.5675 274.519 25.8458 274.347 26.0147C274.174 26.1841 273.862 26.2687 273.411 26.2687H267.796C267.344 26.2687 267.005 26.2087 266.78 26.0871C266.554 25.9664 266.348 25.7606 266.163 25.4705L256.963 10.5172V25.1798C256.963 25.5675 256.876 25.8458 256.704 26.0147C256.531 26.1841 256.219 26.2687 255.768 26.2687H251.546Z" fill="#333E48"/>
<path d="M281.854 26.2687C281.429 26.2687 281.124 26.1841 280.938 26.0147C280.753 25.8458 280.66 25.5675 280.66 25.1798V2.20563C280.66 1.79511 280.753 1.51103 280.938 1.35283C281.124 1.19578 281.429 1.11725 281.854 1.11725H287.151C287.602 1.11725 287.914 1.19578 288.087 1.35283C288.259 1.51103 288.346 1.79511 288.346 2.20563V25.1798C288.346 25.5675 288.259 25.8458 288.087 26.0147C287.914 26.1841 287.602 26.2687 287.151 26.2687H281.854Z" fill="#333E48"/>
<path d="M301.011 26.2687C300.586 26.2687 300.28 26.1841 300.094 26.0147C299.909 25.8458 299.816 25.5675 299.816 25.1798V6.59727H293.005C292.58 6.59727 292.275 6.51297 292.089 6.34322C291.903 6.17433 291.811 5.89603 291.811 5.50831V2.20563C291.811 1.79511 291.903 1.51103 292.089 1.35283C292.275 1.19578 292.58 1.11725 293.005 1.11725H314.313C314.764 1.11725 315.075 1.19578 315.249 1.35283C315.421 1.51103 315.507 1.79511 315.507 2.20563V5.50831C315.507 5.89603 315.421 6.17433 315.249 6.34322C315.075 6.51297 314.764 6.59727 314.313 6.59727H307.503V25.1798C307.503 25.5675 307.416 25.8458 307.243 26.0147C307.071 26.1841 306.758 26.2687 306.308 26.2687H301.011Z" fill="#333E48"/>
<path d="M328.012 26.2687C327.587 26.2687 327.282 26.1841 327.096 26.0147C326.91 25.8458 326.817 25.5675 326.817 25.1798V16.796L318.494 2.9317C318.175 2.42389 318.016 2.06071 318.016 1.84303C318.016 1.35918 318.36 1.11725 319.051 1.11725H324.707C325.131 1.11725 325.469 1.19 325.722 1.33492C325.974 1.48014 326.18 1.72178 326.339 2.06071L330.879 11.7874L335.5 2.06071C335.659 1.72178 335.864 1.48014 336.117 1.33492C336.369 1.19 336.707 1.11725 337.132 1.11725H342.389C343.08 1.11725 343.425 1.35918 343.425 1.84303C343.425 2.06071 343.265 2.42389 342.947 2.9317L334.504 16.8688V25.1798C334.504 25.5675 334.417 25.8458 334.245 26.0147C334.072 26.1841 333.76 26.2687 333.309 26.2687H328.012Z" fill="#333E48"/>
<path d="M362.102 20.8972H364.731C368.74 20.8972 370.745 18.5986 370.745 14.0014V13.3481C370.745 8.77517 368.766 6.48842 364.81 6.48842H362.102V20.8972ZM355.611 26.2687C355.186 26.2687 354.88 26.1838 354.695 26.0146C354.508 25.8455 354.416 25.5672 354.416 25.1797V2.20561C354.416 1.7948 354.508 1.51072 354.695 1.35309C354.88 1.19547 355.186 1.11694 355.611 1.11694H365.209C369.456 1.11694 372.749 2.20562 375.086 4.38354C377.422 6.56117 378.591 9.65858 378.591 13.6746C378.591 16.3124 378.073 18.5804 377.037 20.4798C376.002 22.3797 374.521 23.8188 372.597 24.7989C370.671 25.7791 368.368 26.2687 365.687 26.2687H355.611Z" fill="#333E48"/>
<path d="M396.273 16.4692L393.406 7.14204L390.618 16.4692H396.273ZM380.94 26.2687C380.249 26.2687 379.905 26.0271 379.905 25.5426C379.905 25.3495 380.01 24.9866 380.223 24.4537L389.025 1.98824C389.157 1.6496 389.316 1.4198 389.503 1.29884C389.688 1.17759 389.994 1.11725 390.419 1.11725H396.791C397.215 1.11725 397.521 1.17759 397.707 1.29884C397.892 1.4198 398.052 1.6496 398.185 1.98824L407.027 24.4537C407.239 24.9866 407.345 25.3495 407.345 25.5426C407.345 26.0271 407 26.2687 406.31 26.2687H400.335C399.91 26.2687 399.599 26.1963 399.4 26.0513C399.201 25.9058 399.035 25.6154 398.902 25.1798L397.707 21.4051H389.184L388.029 25.1798C387.896 25.6154 387.73 25.9058 387.531 26.0513C387.332 26.1963 387.02 26.2687 386.595 26.2687H380.94Z" fill="#333E48"/>
<path d="M415.468 26.2687C415.043 26.2687 414.739 26.1841 414.552 26.0147C414.368 25.8458 414.273 25.5675 414.273 25.1798V16.796L405.951 2.9317C405.632 2.42389 405.473 2.06071 405.473 1.84303C405.473 1.35918 405.817 1.11725 406.508 1.11725H412.163C412.588 1.11725 412.927 1.19 413.18 1.33492C413.431 1.48014 413.637 1.72178 413.798 2.06071L418.336 11.7874L422.956 2.06071C423.117 1.72178 423.32 1.48014 423.574 1.33492C423.827 1.19 424.163 1.11725 424.591 1.11725H429.848C430.535 1.11725 430.881 1.35918 430.881 1.84303C430.881 2.06071 430.722 2.42389 430.405 2.9317L421.961 16.8688V25.1798C421.961 25.5675 421.875 25.8458 421.701 26.0147C421.53 26.1841 421.216 26.2687 420.766 26.2687H415.468Z" fill="#333E48"/>
<path d="M205.498 43.3567L119.942 43.6454" stroke="#333E48" stroke-width="2.66667" stroke-miterlimit="10"/>
<path d="M404.178 43.3567L318.622 43.6454" stroke="#333E48" stroke-width="2.66667" stroke-miterlimit="10"/>
<path d="M219.093 48.2644L215.352 38.6612H218.606L220.705 45.7424L222.804 38.6612H225.983L222.242 48.2644H219.093Z" fill="#FF9900"/>
<path d="M232.741 48.2644L232.163 46.4075H228.939L228.391 48.2644H225.289L229 38.6612H232.239L235.951 48.2644H232.741ZM229.486 44.5229H231.616L230.536 40.9616L229.486 44.5229Z" fill="#FF9900"/>
<path d="M239.633 42.2503V48.2644H237.108V38.6612H240.15L243.846 44.7308V38.6612H246.371V48.2644H243.329L239.633 42.2503Z" fill="#FF9900"/>
<path d="M256.544 48.015C255.712 48.3014 254.749 48.4446 253.654 48.4446C251.91 48.4446 250.581 48.0242 249.669 47.1835C248.766 46.3429 248.315 45.1142 248.315 43.4975C248.315 41.9085 248.787 40.6752 249.73 39.7975C250.683 38.9199 252.006 38.4811 253.699 38.4811C254.632 38.4811 255.53 38.615 256.392 38.883V40.9061C255.54 40.7398 254.81 40.6567 254.201 40.6567C253.268 40.6567 252.564 40.883 252.087 41.3357C251.611 41.7791 251.372 42.4397 251.372 43.3173V43.6222C251.372 44.4813 251.6 45.1373 252.057 45.5899C252.523 46.0426 253.208 46.2689 254.11 46.2689C254.8 46.2689 255.611 46.1766 256.544 45.9918V48.015Z" fill="#FF9900"/>
<path d="M262.639 48.5C261.534 48.5 260.581 48.2921 259.78 47.8764C258.979 47.4514 258.37 46.8602 257.955 46.1027C257.539 45.3451 257.331 44.4582 257.331 43.442C257.331 42.3981 257.549 41.502 257.985 40.7537C258.421 39.9962 259.035 39.4188 259.826 39.0215C260.627 38.6243 261.565 38.4257 262.639 38.4257C263.745 38.4257 264.698 38.6335 265.499 39.0492C266.3 39.465 266.908 40.0516 267.324 40.8091C267.75 41.5667 267.963 42.4582 267.963 43.4836C267.963 44.5275 267.745 45.4283 267.309 46.1858C266.873 46.9433 266.254 47.5207 265.453 47.918C264.652 48.306 263.714 48.5 262.639 48.5ZM262.639 46.3798C263.41 46.3798 263.988 46.135 264.373 45.6454C264.769 45.1557 264.966 44.4351 264.966 43.4836C264.966 42.5136 264.769 41.7838 264.373 41.2941C263.978 40.7953 263.4 40.5458 262.639 40.5458C261.879 40.5458 261.301 40.7907 260.905 41.2803C260.52 41.7699 260.327 42.4905 260.327 43.442C260.327 44.4028 260.52 45.1326 260.905 45.6315C261.301 46.1304 261.879 46.3798 262.639 46.3798Z" fill="#FF9900"/>
<path d="M274.452 48.5C272.992 48.5 271.856 48.1766 271.045 47.53C270.244 46.8741 269.843 45.9456 269.843 44.7446V38.6612H272.779V44.8278C272.779 45.3359 272.921 45.7239 273.205 45.9918C273.489 46.2505 273.904 46.3798 274.452 46.3798C275.578 46.3798 276.14 45.8625 276.14 44.8278V38.6612H279.076V44.7585C279.076 45.9502 278.67 46.8741 277.859 47.53C277.048 48.1766 275.912 48.5 274.452 48.5Z" fill="#FF9900"/>
<path d="M283.914 48.2644L280.172 38.6612H283.427L285.526 45.7424L287.625 38.6612H290.804L287.062 48.2644H283.914Z" fill="#FF9900"/>
<path d="M291.962 48.2644V38.6612H299.308V40.6844H294.821V42.3612H298.471V44.3843H294.821V46.2412H299.338V48.2644H291.962Z" fill="#FF9900"/>
<path d="M300.978 48.2644V38.6612H305.328C306.534 38.6612 307.493 38.943 308.202 39.5065C308.912 40.0608 309.267 40.8184 309.267 41.7791C309.267 42.3427 309.125 42.8462 308.841 43.2896C308.567 43.733 308.177 44.0887 307.67 44.3566L309.997 48.2644H306.955L305.1 44.9109H303.761V48.2644H300.978ZM303.761 43.1095H305.008C305.454 43.1095 305.799 42.9986 306.043 42.7769C306.296 42.5552 306.423 42.2364 306.423 41.8207C306.423 40.98 305.941 40.5597 304.978 40.5597H303.761V43.1095Z" fill="#FF9900"/>
</svg>
