<svg width="171" height="169" viewBox="0 0 171 169" fill="none" xmlns="http://www.w3.org/2000/svg">
<rect width="171" height="169" fill="#E7157B"/>
<path d="M60 101.804C55.7849 99.8025 52.1369 96.7794 49.3874 93.0093C46.638 89.2392 44.8743 84.8418 44.2567 80.2167C43.6391 75.5916 44.1872 70.8855 45.8511 66.5261C47.515 62.1667 50.242 58.2923 53.7843 55.255C57.3265 52.2176 61.5716 50.1137 66.1339 49.1344C70.6961 48.155 75.4307 48.3314 79.9074 49.6474C84.3841 50.9635 88.461 53.3774 91.7674 56.6699C95.0738 59.9623 97.505 64.0289 98.84 68.5H106C110.606 68.492 115.04 70.2499 118.389 73.412C121.738 76.5741 123.747 80.8997 124.004 85.4986C124.26 90.0974 122.743 94.6195 119.766 98.1341C116.789 101.649 112.578 103.888 108 104.392" stroke="white" stroke-width="4" stroke-linecap="round" stroke-linejoin="round"/>
<path d="M88 84.5L76 104.5H92L80 124.5" stroke="white" stroke-width="4" stroke-linecap="round" stroke-linejoin="round"/>
</svg>
